<?xml version="1.0" standalone="no"?>
  <!DOCTYPE svg PUBLIC "-//W3C//DTD SVG 1.1//EN" "http://www.w3.org/Graphics/SVG/1.1/DTD/svg11.dtd" >
  <svg>
  <metadata>
  Created by font-carrier
  </metadata>
  <defs>
  <font id="Verdana" horiz-adv-x="3116" vert-adv-y="3116" >
    <font-face
      
      font-family="Verdana"
      
      font-weight="400"
      
      font-stretch="normal"
      
      units-per-em="2048"
      
      ascent="2059"
      
      descent="-430"
      
    />
      <missing-glyph />

      

      
      <glyph glyph-name="uni21" unicode="&#x21;" d="M515 1489L489 410L319 410L291 1489L515 1489M505 0L301 0L301 211L505 211L505 0Z"  horiz-adv-x="806" vert-adv-y="2048"  />

      
      <glyph glyph-name="uni22" unicode="&#x22;" d="M772 1556L729 977L597 977L554 1556L772 1556M386 1556L343 977L211 977L168 1556L386 1556Z"  horiz-adv-x="940" vert-adv-y="2048"  />

      
      <glyph glyph-name="uni23" unicode="&#x23;" d="M1481 932L1148 932L1056 556L1364 556L1364 421L1021 421L917 0L788 0L892 421L622 421L518 0L389 0L493 421L195 421L195 556L528 556L620 932L312 932L312 1067L655 1067L760 1489L889 1489L784 1067L1054 1067L1159 1489L1288 1489L1183 1067L1481 1067L1481 932M1022 934L748 934L654 554L928 554L1022 934Z"  horiz-adv-x="1676" vert-adv-y="2048"  />

      
      <glyph glyph-name="uni24" unicode="&#x24;" d="M1160 380Q1160 225 1039 122.50Q918 20 722 1L722-361L604-361L604-4Q472-3 356 21.50Q240 46 155 85L155 283L171 283Q190 269 239 242.50Q288 216 334 199Q386 180 455.50 163.50Q525 147 604 144L604 577Q564 585 530 592.50Q496 600 467 608Q304 649 233 731.50Q162 814 162 935Q162 1083 278.50 1185Q395 1287 604 1304L604 1576L722 1576L722 1306Q823 1304 929 1282Q1035 1260 1107 1231L1107 1035L1093 1035Q1018 1081 936.50 1116.50Q855 1152 722 1161L722 730Q752 725 787 716.50Q822 708 848 703Q997 671 1078.50 593Q1160 515 1160 380M604 747L604 1160Q497 1152 424 1101.50Q351 1051 351 961Q351 870 405 824Q459 778 604 747M971 354Q971 448 912.50 491.50Q854 535 722 560L722 146Q842 158 906.50 207Q971 256 971 354Z"  horiz-adv-x="1302" vert-adv-y="2048"  />

      
      <glyph glyph-name="uni25" unicode="&#x25;" d="M884 1076Q884 852 789.50 743Q695 634 517 634Q335 634 242 743Q149 852 149 1075Q149 1299 244 1408Q339 1517 517 1517Q698 1517 791 1407Q884 1297 884 1076M1575 1489L795 0L630 0L1410 1489L1575 1489M2055 413Q2055 189 1960 80Q1865-29 1687-29Q1506-29 1413 81Q1320 191 1320 412Q1320 636 1414.50 745Q1509 854 1687 854Q1869 854 1962 745Q2055 636 2055 413M706 1076Q706 1248 661.50 1316Q617 1384 517 1384Q415 1384 371 1316Q327 1248 327 1075Q327 902 371 834.50Q415 767 517 767Q617 767 661.50 834.50Q706 902 706 1076M1877 413Q1877 585 1832.50 653Q1788 721 1688 721Q1586 721 1542 653Q1498 585 1498 412Q1498 239 1542 171.50Q1586 104 1688 104Q1788 104 1832.50 171.50Q1877 239 1877 413Z"  horiz-adv-x="2204" vert-adv-y="2048"  />

      
      <glyph glyph-name="uni26" unicode="&#x26;" d="M792 1191Q792 1286 735.50 1340.50Q679 1395 591 1395Q499 1395 441 1333.50Q383 1272 383 1183Q383 1108 422.50 1050Q462 992 593 913Q691 948 741.50 1015.50Q792 1083 792 1191M986 315L508 781Q477 766 446 741.50Q415 717 384 675Q356 636 338 581Q320 526 320 457Q320 311 405.50 221.50Q491 132 648 132Q741 132 832.50 177.50Q924 223 986 315M1287 909L1287 813Q1287 717 1262 597Q1237 477 1177 368L1555 0L1309 0L1080 224Q965 82 845 25.50Q725-31 598-31Q390-31 252.50 90.50Q115 212 115 409Q115 501 141 568Q167 635 202 684Q237 731 289 772.50Q341 814 394 845Q284 917 235.50 990Q187 1063 187 1174Q187 1241 213.50 1301.50Q240 1362 293 1412Q343 1460 423.50 1490Q504 1520 601 1520Q774 1520 881 1432.50Q988 1345 988 1211Q988 1167 976 1111.50Q964 1056 935 1012Q903 963 844 918Q785 873 691 841L1062 479Q1076 519 1083 567Q1090 615 1091 667Q1093 723 1092.50 792Q1092 861 1092 909L1287 909Z"  horiz-adv-x="1488" vert-adv-y="2048"  />

      
      <glyph glyph-name="uni27" unicode="&#x27;" d="M386 1556L343 977L207 977L164 1556L386 1556Z"  horiz-adv-x="550" vert-adv-y="2048"  />

      
      <glyph glyph-name="uni28" unicode="&#x28;" d="M783-412L554-412Q377-209 279 31Q181 271 181 572Q181 873 279 1113Q377 1353 554 1556L783 1556L783 1546Q702 1473 628.50 1377.50Q555 1282 492 1155Q432 1032 394.50 884Q357 736 357 572Q357 401 393.50 259Q430 117 492-11Q552-134 629-233.50Q706-333 783-402L783-412Z"  horiz-adv-x="930" vert-adv-y="2048"  />

      
      <glyph glyph-name="uni29" unicode="&#x29;" d="M749 572Q749 271 651 31Q553-209 376-412L147-412L147-402Q224-333 301.50-233.50Q379-134 438-11Q500 117 536.50 259Q573 401 573 572Q573 736 536 884Q499 1032 438 1155Q375 1282 301.50 1377.50Q228 1473 147 1546L147 1556L376 1556Q553 1353 651 1113Q749 873 749 572Z"  horiz-adv-x="930" vert-adv-y="2048"  />

      
      <glyph glyph-name="uni2a" unicode="&#x2a;" d="M1137 887L1073 777L711 990L717 630L588 630L593 990L232 776L167 886L548 1093L167 1300L232 1410L594 1197L588 1556L717 1556L710 1197L1073 1409L1137 1299L757 1094L1137 887Z"  horiz-adv-x="1302" vert-adv-y="2048"  />

      
      <glyph glyph-name="uni2b" unicode="&#x2b;" d="M1466 572L921 572L921 27L755 27L755 572L210 572L210 732L755 732L755 1277L921 1277L921 732L1466 732L1466 572Z"  horiz-adv-x="1676" vert-adv-y="2048"  />

      
      <glyph glyph-name="uni2c" unicode="&#x2c;" d="M575 285L293-370L147-370L321 285L575 285Z"  horiz-adv-x="745" vert-adv-y="2048"  />

      
      <glyph glyph-name="uni2d" unicode="&#x2d;" d="M777 561L153 561L153 742L777 742L777 561Z"  horiz-adv-x="930" vert-adv-y="2048"  />

      
      <glyph glyph-name="uniad" unicode="&#xad;" d="M777 561L153 561L153 742L777 742L777 561Z"  horiz-adv-x="930" vert-adv-y="2048"  />

      
      <glyph glyph-name="uni2e" unicode="&#x2e;" d="M492 0L253 0L253 285L492 285L492 0Z"  horiz-adv-x="745" vert-adv-y="2048"  />

      
      <glyph glyph-name="uni2f" unicode="&#x2f;" d="M860 1556L143-304L-30-304L684 1556L860 1556Z"  horiz-adv-x="930" vert-adv-y="2048"  />

      
      <glyph glyph-name="uni30" unicode="&#x30;" d="M1167 745Q1167 344 1041.50 156.50Q916-31 652-31Q384-31 260.50 159Q137 349 137 743Q137 1140 262 1329.50Q387 1519 652 1519Q920 1519 1043.50 1326.50Q1167 1134 1167 745M904 291Q939 372 951.50 481.50Q964 591 964 745Q964 897 951.50 1009Q939 1121 903 1199Q868 1276 807.50 1315Q747 1354 652 1354Q558 1354 496.50 1315Q435 1276 399 1197Q365 1123 352.50 1004Q340 885 340 743Q340 587 351 482Q362 377 398 294Q431 216 491.50 175Q552 134 652 134Q746 134 808 173Q870 212 904 291Z"  horiz-adv-x="1302" vert-adv-y="2048"  />

      
      <glyph glyph-name="uni31" unicode="&#x31;" d="M1084 0L278 0L278 152L588 152L588 1150L278 1150L278 1286Q341 1286 413 1296.50Q485 1307 522 1327Q568 1352 594.50 1390.50Q621 1429 625 1494L780 1494L780 152L1084 152L1084 0Z"  horiz-adv-x="1302" vert-adv-y="2048"  />

      
      <glyph glyph-name="uni32" unicode="&#x32;" d="M1169 0L161 0L161 209Q266 299 371.50 389Q477 479 568 568Q760 754 831 863.50Q902 973 902 1100Q902 1216 825.50 1281.50Q749 1347 612 1347Q521 1347 415 1315Q309 1283 208 1217L198 1217L198 1427Q269 1462 387.50 1491Q506 1520 617 1520Q846 1520 976 1409.50Q1106 1299 1106 1110Q1106 1025 1084.50 951.50Q1063 878 1021 812Q982 750 929.50 690Q877 630 802 557Q695 452 581 353.50Q467 255 368 171L1169 171L1169 0Z"  horiz-adv-x="1302" vert-adv-y="2048"  />

      
      <glyph glyph-name="uni33" unicode="&#x33;" d="M1038 717Q1086 674 1117 609Q1148 544 1148 441Q1148 339 1111 254Q1074 169 1007 106Q932 36 830.50 2.50Q729-31 608-31Q484-31 364-1.50Q244 28 167 63L167 272L182 272Q267 216 382 179Q497 142 604 142Q667 142 738 163Q809 184 853 225Q899 269 921.50 322Q944 375 944 456Q944 536 918.50 588.50Q893 641 848 671Q803 702 739 713.50Q675 725 601 725L511 725L511 891L581 891Q733 891 823.50 954.50Q914 1018 914 1140Q914 1194 891 1234.50Q868 1275 827 1301Q784 1327 735 1337Q686 1347 624 1347Q529 1347 422 1313Q315 1279 220 1217L210 1217L210 1426Q281 1461 399.50 1490.50Q518 1520 629 1520Q738 1520 821 1500Q904 1480 971 1436Q1043 1388 1080 1320Q1117 1252 1117 1161Q1117 1037 1029.50 944.50Q942 852 823 828L823 814Q871 806 933 780.50Q995 755 1038 717Z"  horiz-adv-x="1302" vert-adv-y="2048"  />

      
      <glyph glyph-name="uni34" unicode="&#x34;" d="M1203 419L982 419L982 0L790 0L790 419L77 419L77 649L798 1489L982 1489L982 579L1203 579L1203 419M790 579L790 1251L213 579L790 579Z"  horiz-adv-x="1302" vert-adv-y="2048"  />

      
      <glyph glyph-name="uni35" unicode="&#x35;" d="M1157 473Q1157 369 1119 274Q1081 179 1015 114Q943 44 843.50 6.50Q744-31 613-31Q491-31 378-5.50Q265 20 187 56L187 267L201 267Q283 215 393 178.50Q503 142 609 142Q680 142 746.50 162Q813 182 865 232Q909 275 931.50 335Q954 395 954 474Q954 551 927.50 604Q901 657 854 689Q802 727 727.50 742.50Q653 758 561 758Q473 758 391.50 746Q310 734 251 722L251 1489L1147 1489L1147 1314L444 1314L444 918Q487 922 532 924Q577 926 610 926Q731 926 822 905.50Q913 885 989 833Q1069 778 1113 691Q1157 604 1157 473Z"  horiz-adv-x="1302" vert-adv-y="2048"  />

      
      <glyph glyph-name="uni36" unicode="&#x36;" d="M1191 483Q1191 256 1041.50 112.50Q892-31 675-31Q565-31 475 3Q385 37 316 104Q230 187 183.50 324Q137 461 137 654Q137 852 179.50 1005Q222 1158 315 1277Q403 1390 542 1453.50Q681 1517 866 1517Q925 1517 965 1512Q1005 1507 1046 1494L1046 1303L1036 1303Q1008 1318 951.50 1331.50Q895 1345 836 1345Q621 1345 493 1210.50Q365 1076 344 847Q428 898 509.50 924.50Q591 951 698 951Q793 951 865.50 933.50Q938 916 1014 863Q1102 802 1146.50 709Q1191 616 1191 483M988 475Q988 568 960.50 629Q933 690 870 735Q824 767 768 777Q712 787 651 787Q566 787 493 767Q420 747 343 705Q341 683 340 662.50Q339 642 339 611Q339 453 371.50 361.50Q404 270 461 217Q507 173 560.50 152.50Q614 132 677 132Q822 132 905 220.50Q988 309 988 475Z"  horiz-adv-x="1302" vert-adv-y="2048"  />

      
      <glyph glyph-name="uni37" unicode="&#x37;" d="M1173 1266L499 0L285 0L1002 1314L154 1314L154 1489L1173 1489L1173 1266Z"  horiz-adv-x="1302" vert-adv-y="2048"  />

      
      <glyph glyph-name="uni38" unicode="&#x38;" d="M1180 415Q1180 222 1029.50 94Q879-34 651-34Q409-34 265.50 91Q122 216 122 411Q122 535 194 635.50Q266 736 397 795L397 801Q277 865 219.50 941Q162 1017 162 1131Q162 1299 300 1411Q438 1523 651 1523Q874 1523 1007 1416Q1140 1309 1140 1144Q1140 1043 1077 945.50Q1014 848 892 793L892 787Q1032 727 1106 639Q1180 551 1180 415M943 1142Q943 1249 860.50 1312.50Q778 1376 650 1376Q524 1376 443.50 1316Q363 1256 363 1154Q363 1082 403.50 1029.50Q444 977 526 936Q563 918 632.50 889Q702 860 768 841Q867 907 905 978Q943 1049 943 1142M974 396Q974 488 933.50 543.50Q893 599 775 655Q728 677 672 696Q616 715 523 749Q433 700 378.50 616Q324 532 324 426Q324 291 417 203Q510 115 653 115Q799 115 886.50 190Q974 265 974 396Z"  horiz-adv-x="1302" vert-adv-y="2048"  />

      
      <glyph glyph-name="uni39" unicode="&#x39;" d="M1167 834Q1167 639 1122.50 480Q1078 321 988 209Q897 95 760 33Q623-29 438-29Q386-29 340-23.50Q294-18 258-6L258 185L268 185Q297 170 350 156.50Q403 143 468 143Q689 143 814.50 275.50Q940 408 960 641Q867 585 785 561Q703 537 606 537Q514 537 439.50 555Q365 573 290 625Q202 686 157.50 780Q113 874 113 1005Q113 1233 263 1376Q413 1519 629 1519Q737 1519 829 1485.50Q921 1452 990 1385Q1075 1302 1121 1171.50Q1167 1041 1167 834M965 877Q965 1032 933 1126Q901 1220 845 1272Q798 1317 744 1336.50Q690 1356 627 1356Q483 1356 399.50 1266Q316 1176 316 1013Q316 918 343 858Q370 798 434 753Q479 722 533 711.50Q587 701 653 701Q731 701 811 722Q891 743 961 783Q962 804 963.50 824.50Q965 845 965 877Z"  horiz-adv-x="1302" vert-adv-y="2048"  />

      
      <glyph glyph-name="uni3a" unicode="&#x3a;" d="M585 832L346 832L346 1117L585 1117L585 832M585 0L346 0L346 285L585 285L585 0Z"  horiz-adv-x="930" vert-adv-y="2048"  />

      
      <glyph glyph-name="uni3b" unicode="&#x3b;" d="M585 832L346 832L346 1117L585 1117L585 832M658 285L376-370L230-370L404 285L658 285Z"  horiz-adv-x="930" vert-adv-y="2048"  />

      
      <glyph glyph-name="uni037E" unicode="&#x037E;" d="M585 832L346 832L346 1117L585 1117L585 832M658 285L376-370L230-370L404 285L658 285Z"  horiz-adv-x="930" vert-adv-y="2048"  />

      
      <glyph glyph-name="uni3c" unicode="&#x3c;" d="M1408 77L254 590L254 714L1408 1227L1408 1047L498 652L1408 257L1408 77Z"  horiz-adv-x="1676" vert-adv-y="2048"  />

      
      <glyph glyph-name="uni3d" unicode="&#x3d;" d="M1431 782L245 782L245 942L1431 942L1431 782M1431 362L245 362L245 522L1431 522L1431 362Z"  horiz-adv-x="1676" vert-adv-y="2048"  />

      
      <glyph glyph-name="uni3e" unicode="&#x3e;" d="M1422 590L268 77L268 257L1178 652L268 1047L268 1227L1422 714L1422 590Z"  horiz-adv-x="1676" vert-adv-y="2048"  />

      
      <glyph glyph-name="uni3f" unicode="&#x3f;" d="M1005 1139Q1005 1041 970 964.50Q935 888 878 829Q822 772 749 722Q676 672 594 625L594 400L415 400L415 705Q480 742 555.50 786Q631 830 679 875Q737 927 769 982.50Q801 1038 801 1124Q801 1237 724.50 1292.50Q648 1348 527 1348Q419 1348 322.50 1314Q226 1280 170 1245L160 1245L160 1449Q230 1476 337.50 1497.50Q445 1519 541 1519Q756 1519 880.50 1414.50Q1005 1310 1005 1139M610 0L406 0L406 211L610 211L610 0Z"  horiz-adv-x="1117" vert-adv-y="2048"  />

      
      <glyph glyph-name="uni40" unicode="&#x40;" d="M1870 663Q1870 524 1829.50 394Q1789 264 1714 157L1274 157L1247 273Q1173 213 1105 181Q1037 149 949 149Q781 149 680.50 276Q580 403 580 631Q580 858 703 993Q826 1128 997 1128Q1070 1128 1126 1111.50Q1182 1095 1247 1062L1247 1110L1406 1110L1406 268L1649 268Q1691 343 1712.50 455.50Q1734 568 1734 657Q1734 821 1688.50 955Q1643 1089 1555 1185Q1467 1281 1337 1332.50Q1207 1384 1042 1384Q882 1384 749.50 1326Q617 1268 522 1170Q426 1072 371.50 935.50Q317 799 317 645Q317 480 369 343.50Q421 207 516 110Q615 9 748-42.50Q881-94 1038-94Q1124-94 1215.50-83Q1307-72 1391-48L1391-190Q1294-211 1210-218.50Q1126-226 1037-226Q851-226 692-162.50Q533-99 419 15Q304 130 240 291Q176 452 176 647Q176 832 243 991.50Q310 1151 426 1268Q542 1385 701 1452Q860 1519 1041 1519Q1237 1519 1391 1457Q1545 1395 1651 1283Q1757 1171 1813.50 1013.50Q1870 856 1870 663M1245 408L1245 926Q1182 955 1132 967.50Q1082 980 1025 980Q896 980 823 890Q750 800 750 634Q750 471 808 387.50Q866 304 989 304Q1056 304 1123 335Q1190 366 1245 408Z"  horiz-adv-x="2048" vert-adv-y="2048"  />

      
      <glyph glyph-name="uni41" unicode="&#x41;" d="M1374 0L1163 0L1017 415L373 415L227 0L26 0L568 1489L832 1489L1374 0M956 585L695 1316L433 585L956 585Z"  horiz-adv-x="1400" vert-adv-y="2048"  />

      
      <glyph glyph-name="uni42" unicode="&#x42;" d="M1323 458Q1323 347 1281 262Q1239 177 1168 122Q1084 56 983.50 28Q883 0 728 0L200 0L200 1489L641 1489Q804 1489 885 1477Q966 1465 1040 1427Q1122 1384 1159 1316.50Q1196 1249 1196 1155Q1196 1049 1142 974.50Q1088 900 998 855L998 847Q1149 816 1236 714.50Q1323 613 1323 458M990 1129Q990 1183 972 1220Q954 1257 914 1280Q867 1307 800 1313.50Q733 1320 634 1320L398 1320L398 890L654 890Q747 890 802 899.50Q857 909 904 939Q951 969 970.50 1016.50Q990 1064 990 1129M1117 450Q1117 540 1090 593Q1063 646 992 683Q944 708 875.50 715.50Q807 723 709 723L398 723L398 169L660 169Q790 169 873 182.50Q956 196 1009 232Q1065 271 1091 321Q1117 371 1117 450Z"  horiz-adv-x="1404" vert-adv-y="2048"  />

      
      <glyph glyph-name="uni43" unicode="&#x43;" d="M1350 108Q1295 84 1250.50 63Q1206 42 1134 19Q1073 0 1001.50-13.50Q930-27 844-27Q682-27 549.50 18.50Q417 64 319 161Q223 256 169 402.50Q115 549 115 743Q115 927 167 1072Q219 1217 317 1317Q412 1414 546.50 1465Q681 1516 845 1516Q965 1516 1084.50 1487Q1204 1458 1350 1385L1350 1150L1335 1150Q1212 1253 1091 1300Q970 1347 832 1347Q719 1347 628.50 1310.50Q538 1274 467 1197Q398 1122 359.50 1007.50Q321 893 321 743Q321 586 363.50 473Q406 360 473 289Q543 215 636.50 179.50Q730 144 834 144Q977 144 1102 193Q1227 242 1336 340L1350 340L1350 108Z"  horiz-adv-x="1430" vert-adv-y="2048"  />

      
      <glyph glyph-name="uni44" unicode="&#x44;" d="M1458 743Q1458 540 1369.50 375Q1281 210 1134 119Q1032 56 906.50 28Q781 0 576 0L200 0L200 1489L572 1489Q790 1489 918.50 1457.50Q1047 1426 1136 1371Q1288 1276 1373 1118Q1458 960 1458 743M1251 746Q1251 921 1190 1041Q1129 1161 1008 1230Q920 1280 821 1299.50Q722 1319 584 1319L398 1319L398 170L584 170Q727 170 833.50 191Q940 212 1029 269Q1140 340 1195.50 456Q1251 572 1251 746Z"  horiz-adv-x="1578" vert-adv-y="2048"  />

      
      <glyph glyph-name="uni45" unicode="&#x45;" d="M1181 0L200 0L200 1489L1181 1489L1181 1313L398 1313L398 905L1181 905L1181 729L398 729L398 176L1181 176L1181 0Z"  horiz-adv-x="1295" vert-adv-y="2048"  />

      
      <glyph glyph-name="uni46" unicode="&#x46;" d="M1151 1313L398 1313L398 893L1045 893L1045 717L398 717L398 0L200 0L200 1489L1151 1489L1151 1313Z"  horiz-adv-x="1177" vert-adv-y="2048"  />

      
      <glyph glyph-name="uni47" unicode="&#x47;" d="M1442 110Q1320 54 1175.50 12.50Q1031-29 896-29Q722-29 577 19Q432 67 330 163Q227 260 171 405.50Q115 551 115 746Q115 1103 323.50 1309.50Q532 1516 896 1516Q1023 1516 1155.50 1485.50Q1288 1455 1441 1382L1441 1147L1423 1147Q1392 1171 1333 1210Q1274 1249 1217 1275Q1148 1306 1060.50 1326.50Q973 1347 862 1347Q612 1347 466.50 1186.50Q321 1026 321 752Q321 463 473 302.50Q625 142 887 142Q983 142 1078.50 161Q1174 180 1246 210L1246 575L847 575L847 749L1442 749L1442 110Z"  horiz-adv-x="1588" vert-adv-y="2048"  />

      
      <glyph glyph-name="uni48" unicode="&#x48;" d="M1339 0L1141 0L1141 729L398 729L398 0L200 0L200 1489L398 1489L398 905L1141 905L1141 1489L1339 1489L1339 0Z"  horiz-adv-x="1539" vert-adv-y="2048"  />

      
      <glyph glyph-name="uni49" unicode="&#x49;" d="M725 0L137 0L137 152L332 152L332 1337L137 1337L137 1489L725 1489L725 1337L530 1337L530 152L725 152L725 0Z"  horiz-adv-x="862" vert-adv-y="2048"  />

      
      <glyph glyph-name="uni4a" unicode="&#x4a;" d="M746 387Q746 191 626.50 85Q507-21 306-21Q258-21 178-12.50Q98-4 44 8L44 193L55 193Q96 179 156 164Q216 149 279 149Q371 149 425.50 170Q480 191 506 230Q533 270 540.50 328Q548 386 548 462L548 1331L233 1331L233 1489L746 1489L746 387Z"  horiz-adv-x="931" vert-adv-y="2048"  />

      
      <glyph glyph-name="uni4b" unicode="&#x4b;" d="M1397 0L1140 0L551 663L403 505L403 0L205 0L205 1489L403 1489L403 712L1126 1489L1366 1489L701 789L1397 0Z"  horiz-adv-x="1419" vert-adv-y="2048"  />

      
      <glyph glyph-name="uni4c" unicode="&#x4c;" d="M1142 0L200 0L200 1489L398 1489L398 176L1142 176L1142 0Z"  horiz-adv-x="1140" vert-adv-y="2048"  />

      
      <glyph glyph-name="uni4d" unicode="&#x4d;" d="M1526 0L1328 0L1328 1283L914 410L796 410L385 1283L385 0L200 0L200 1489L470 1489L867 660L1251 1489L1526 1489L1526 0Z"  horiz-adv-x="1726" vert-adv-y="2048"  />

      
      <glyph glyph-name="uni4e" unicode="&#x4e;" d="M1336 0L1091 0L385 1332L385 0L200 0L200 1489L507 1489L1151 273L1151 1489L1336 1489L1336 0Z"  horiz-adv-x="1532" vert-adv-y="2048"  />

      
      <glyph glyph-name="uni4f" unicode="&#x4f;" d="M1310 1318Q1401 1218 1449.50 1073Q1498 928 1498 744Q1498 560 1448.50 414.50Q1399 269 1310 172Q1218 71 1092.50 20Q967-31 806-31Q649-31 520.50 21Q392 73 302 172Q212 271 163.50 415Q115 559 115 744Q115 926 163 1070.50Q211 1215 303 1318Q391 1416 521.50 1468Q652 1520 806 1520Q966 1520 1093.50 1467.50Q1221 1415 1310 1318M1292 744Q1292 1034 1162 1191.50Q1032 1349 807 1349Q580 1349 450.50 1191.50Q321 1034 321 744Q321 451 453 295.50Q585 140 807 140Q1029 140 1160.50 295.50Q1292 451 1292 744Z"  horiz-adv-x="1612" vert-adv-y="2048"  />

      
      <glyph glyph-name="uni50" unicode="&#x50;" d="M1174 1039Q1174 940 1139.50 855.50Q1105 771 1043 709Q966 632 861 593.50Q756 555 596 555L398 555L398 0L200 0L200 1489L604 1489Q738 1489 831 1466.50Q924 1444 996 1396Q1081 1339 1127.50 1254Q1174 1169 1174 1039M968 1034Q968 1111 941 1168Q914 1225 859 1261Q811 1292 749.50 1305.50Q688 1319 594 1319L398 1319L398 724L565 724Q685 724 760 745.50Q835 767 882 814Q929 862 948.50 915Q968 968 968 1034Z"  horiz-adv-x="1235" vert-adv-y="2048"  />

      
      <glyph glyph-name="uni51" unicode="&#x51;" d="M1528-365Q1468-380 1409.50-386.50Q1351-393 1290-393Q1116-393 1010.50-297.50Q905-202 896-24Q872-28 849.50-29.50Q827-31 806-31Q649-31 520.50 21Q392 73 302 172Q212 271 163.50 415Q115 559 115 744Q115 926 163 1070.50Q211 1215 303 1318Q391 1416 521.50 1468Q652 1520 806 1520Q966 1520 1093.50 1467.50Q1221 1415 1310 1318Q1401 1218 1449.50 1073Q1498 928 1498 744Q1498 471 1386.50 284Q1275 97 1087 22Q1091-92 1141-155Q1191-218 1323-218Q1364-218 1420.50-205.50Q1477-193 1501-183L1528-183L1528-365M1292 744Q1292 1034 1162 1191.50Q1032 1349 807 1349Q580 1349 450.50 1191.50Q321 1034 321 744Q321 451 453 295.50Q585 140 807 140Q1029 140 1160.50 295.50Q1292 451 1292 744Z"  horiz-adv-x="1612" vert-adv-y="2048"  />

      
      <glyph glyph-name="uni52" unicode="&#x52;" d="M1432 0L1175 0L677 592L398 592L398 0L200 0L200 1489L617 1489Q752 1489 842 1471.50Q932 1454 1004 1409Q1085 1358 1130.50 1280.50Q1176 1203 1176 1084Q1176 923 1095 814.50Q1014 706 872 651L1432 0M969 1070Q969 1134 946.50 1183.50Q924 1233 872 1267Q829 1296 770 1307.50Q711 1319 631 1319L398 1319L398 757L598 757Q692 757 762 773.50Q832 790 881 835Q926 877 947.50 931.50Q969 986 969 1070Z"  horiz-adv-x="1424" vert-adv-y="2048"  />

      
      <glyph glyph-name="uni53" unicode="&#x53;" d="M1282 425Q1282 338 1241.50 253Q1201 168 1128 109Q1048 45 941.50 9Q835-27 685-27Q524-27 395.50 3Q267 33 134 92L134 340L148 340Q261 246 409 195Q557 144 687 144Q871 144 973.50 213Q1076 282 1076 397Q1076 496 1027.50 543Q979 590 880 616Q805 636 717.50 649Q630 662 532 682Q334 724 238.50 825.50Q143 927 143 1090Q143 1277 301 1396.50Q459 1516 702 1516Q859 1516 990 1486Q1121 1456 1222 1412L1222 1178L1208 1178Q1123 1250 984.50 1297.50Q846 1345 701 1345Q542 1345 445.50 1279Q349 1213 349 1109Q349 1016 397 963Q445 910 566 882Q630 868 748 848Q866 828 948 807Q1114 763 1198 674Q1282 585 1282 425Z"  horiz-adv-x="1400" vert-adv-y="2048"  />

      
      <glyph glyph-name="uni54" unicode="&#x54;" d="M1262 1313L730 1313L730 0L532 0L532 1313L0 1313L0 1489L1262 1489L1262 1313Z"  horiz-adv-x="1262" vert-adv-y="2048"  />

      
      <glyph glyph-name="uni55" unicode="&#x55;" d="M1321 598Q1321 436 1285.50 315.50Q1250 195 1169 115Q1092 39 989 4Q886-31 749-31Q609-31 505 6Q401 43 330 115Q249 197 213.50 313Q178 429 178 598L178 1489L376 1489L376 588Q376 467 392.50 397Q409 327 448 270Q492 205 567.50 172Q643 139 749 139Q856 139 931 171.50Q1006 204 1051 270Q1090 327 1106.50 400.50Q1123 474 1123 583L1123 1489L1321 1489L1321 598Z"  horiz-adv-x="1499" vert-adv-y="2048"  />

      
      <glyph glyph-name="uni56" unicode="&#x56;" d="M1374 1489L832 0L568 0L26 1489L238 1489L705 179L1172 1489L1374 1489Z"  horiz-adv-x="1400" vert-adv-y="2048"  />

      
      <glyph glyph-name="uni57" unicode="&#x57;" d="M1933 1489L1546 0L1323 0L1010 1236L704 0L486 0L92 1489L295 1489L608 251L916 1489L1117 1489L1428 239L1739 1489L1933 1489Z"  horiz-adv-x="2025" vert-adv-y="2048"  />

      
      <glyph glyph-name="uni58" unicode="&#x58;" d="M1336 1489L822 753L1335 0L1106 0L700 613L284 0L68 0L587 744L80 1489L308 1489L709 884L1119 1489L1336 1489Z"  horiz-adv-x="1403" vert-adv-y="2048"  />

      
      <glyph glyph-name="uni59" unicode="&#x59;" d="M1254 1489L730 653L730 0L532 0L532 632L6 1489L225 1489L632 823L1043 1489L1254 1489Z"  horiz-adv-x="1260" vert-adv-y="2048"  />

      
      <glyph glyph-name="uni5a" unicode="&#x5a;" d="M1288 0L126 0L126 184L1039 1313L160 1313L160 1489L1266 1489L1266 1310L344 176L1288 176L1288 0Z"  horiz-adv-x="1403" vert-adv-y="2048"  />

      
      <glyph glyph-name="uni5b" unicode="&#x5b;" d="M759-392L239-392L239 1556L759 1556L759 1413L413 1413L413-249L759-249L759-392Z"  horiz-adv-x="930" vert-adv-y="2048"  />

      
      <glyph glyph-name="uni5c" unicode="&#x5c;" d="M960-304L787-304L70 1556L246 1556L960-304Z"  horiz-adv-x="930" vert-adv-y="2048"  />

      
      <glyph glyph-name="uni5d" unicode="&#x5d;" d="M691-392L171-392L171-249L517-249L517 1413L171 1413L171 1556L691 1556L691-392Z"  horiz-adv-x="930" vert-adv-y="2048"  />

      
      <glyph glyph-name="uni5e" unicode="&#x5e;" d="M1490 684L1292 684L837 1311L383 682L186 682L775 1489L901 1489L1490 684Z"  horiz-adv-x="1676" vert-adv-y="2048"  />

      
      <glyph glyph-name="uni5f" unicode="&#x5f;" d="M1306-300L-4-300L-4-180L1306-180L1306-300Z"  horiz-adv-x="1302" vert-adv-y="2048"  />

      
      <glyph glyph-name="uni60" unicode="&#x60;" d="M762 1302L613 1302L340 1676L583 1676L762 1302Z"  horiz-adv-x="1302" vert-adv-y="2048"  />

      
      <glyph glyph-name="uni61" unicode="&#x61;" d="M1053 0L866 0L866 119Q841 102 798.50 71.50Q756 41 716 23Q669 0 608-15.50Q547-31 465-31Q314-31 209 69Q104 169 104 324Q104 451 158.50 529.50Q213 608 314 653Q416 698 559 714Q702 730 866 738L866 767Q866 831 843.50 873Q821 915 779 939Q739 962 683 970Q627 978 566 978Q492 978 401 958.50Q310 939 213 902L203 902L203 1093Q258 1108 362 1126Q466 1144 567 1144Q685 1144 772.50 1124.50Q860 1105 924 1058Q987 1012 1020 939Q1053 866 1053 758L1053 0M866 275L866 586Q780 581 663.50 571Q547 561 479 542Q398 519 348 470.50Q298 422 298 337Q298 241 356 192.50Q414 144 533 144Q632 144 714 182.50Q796 221 866 275Z"  horiz-adv-x="1230" vert-adv-y="2048"  />

      
      <glyph glyph-name="uni62" unicode="&#x62;" d="M1168 567Q1168 427 1128.50 315Q1089 203 1022 127Q951 48 866 8.50Q781-31 679-31Q584-31 513-8.50Q442 14 373 52L361 0L185 0L185 1556L373 1556L373 1000Q452 1065 541 1106.50Q630 1148 741 1148Q939 1148 1053.50 996Q1168 844 1168 567M974 562Q974 762 908 865.50Q842 969 695 969Q613 969 529 933.50Q445 898 373 842L373 202Q453 166 510.50 152Q568 138 641 138Q797 138 885.50 240.50Q974 343 974 562Z"  horiz-adv-x="1276" vert-adv-y="2048"  />

      
      <glyph glyph-name="uni63" unicode="&#x63;" d="M1011 70Q917 25 832.50 0Q748-25 653-25Q532-25 431 10.50Q330 46 258 118Q185 190 145 300Q105 410 105 557Q105 831 255.50 987Q406 1143 653 1143Q749 1143 841.50 1116Q934 1089 1011 1050L1011 841L1001 841Q915 908 823.50 944Q732 980 645 980Q485 980 392.50 872.50Q300 765 300 557Q300 355 390.50 246.50Q481 138 645 138Q702 138 761 153Q820 168 867 192Q908 213 944 236.50Q980 260 1001 277L1011 277L1011 70Z"  horiz-adv-x="1067" vert-adv-y="2048"  />

      
      <glyph glyph-name="uni64" unicode="&#x64;" d="M1091 0L903 0L903 117Q822 47 734 8Q646-31 543-31Q343-31 225.50 123Q108 277 108 550Q108 692 148.50 803Q189 914 258 992Q326 1068 416.50 1108Q507 1148 604 1148Q692 1148 760 1129.50Q828 1111 903 1072L903 1556L1091 1556L1091 0M903 275L903 916Q827 950 767 963Q707 976 636 976Q478 976 390 866Q302 756 302 554Q302 355 370 251.50Q438 148 588 148Q668 148 750 183.50Q832 219 903 275Z"  horiz-adv-x="1276" vert-adv-y="2048"  />

      
      <glyph glyph-name="uni65" unicode="&#x65;" d="M1120 539L297 539Q297 436 328 359.50Q359 283 413 234Q465 186 536.50 162Q608 138 694 138Q808 138 923.50 183.50Q1039 229 1088 273L1098 273L1098 68Q1003 28 904 1Q805-26 696-26Q418-26 262 124.50Q106 275 106 552Q106 826 255.50 987Q405 1148 649 1148Q875 1148 997.50 1016Q1120 884 1120 641L1120 539M937 683Q936 831 862.50 912Q789 993 639 993Q488 993 398.50 904Q309 815 297 683L937 683Z"  horiz-adv-x="1220" vert-adv-y="2048"  />

      
      <glyph glyph-name="uni66" unicode="&#x66;" d="M786 1374L776 1374Q745 1383 695 1392.50Q645 1402 607 1402Q486 1402 431.50 1348.50Q377 1295 377 1155L377 1117L716 1117L716 959L383 959L383 0L195 0L195 959L68 959L68 1117L195 1117L195 1154Q195 1353 294 1459.50Q393 1566 580 1566Q643 1566 693.50 1560Q744 1554 786 1546L786 1374Z"  horiz-adv-x="720" vert-adv-y="2048"  />

      
      <glyph glyph-name="uni67" unicode="&#x67;" d="M1091 127Q1091-157 962-290Q833-423 565-423Q476-423 391.50-410.50Q307-398 225-375L225-183L235-183Q281-201 381-227.50Q481-254 581-254Q677-254 740-231Q803-208 838-167Q873-128 888-73Q903-18 903 50L903 152Q818 84 740.50 50.50Q663 17 543 17Q343 17 225.50 161.50Q108 306 108 569Q108 713 148.50 817.50Q189 922 259 998Q324 1069 417 1108.50Q510 1148 602 1148Q699 1148 764.50 1128.50Q830 1109 903 1069L915 1117L1091 1117L1091 127M903 307L903 916Q828 950 763.50 964.50Q699 979 635 979Q480 979 391 875Q302 771 302 573Q302 385 368 288Q434 191 587 191Q669 191 751.50 222.50Q834 254 903 307Z"  horiz-adv-x="1276" vert-adv-y="2048"  />

      
      <glyph glyph-name="uni68" unicode="&#x68;" d="M1119 0L931 0L931 636Q931 713 922 780.50Q913 848 889 886Q864 928 817 948.50Q770 969 695 969Q618 969 534 931Q450 893 373 834L373 0L185 0L185 1556L373 1556L373 993Q461 1066 555 1107Q649 1148 748 1148Q929 1148 1024 1039Q1119 930 1119 725L1119 0Z"  horiz-adv-x="1296" vert-adv-y="2048"  />

      
      <glyph glyph-name="uni69" unicode="&#x69;" d="M387 1304L175 1304L175 1499L387 1499L387 1304M375 0L187 0L187 1117L375 1117L375 0Z"  horiz-adv-x="562" vert-adv-y="2048"  />

      
      <glyph glyph-name="uni6a" unicode="&#x6a;" d="M533 1304L321 1304L321 1499L533 1499L533 1304M521-27Q521-223 421-323Q321-423 153-423Q113-423 47.50-415Q-18-407-62-395L-62-216L-52-216Q-24-227 23.50-241Q71-255 116-255Q188-255 232-235Q276-215 298-175Q320-135 326.50-78.50Q333-22 333 59L333 959L100 959L100 1117L521 1117L521-27Z"  horiz-adv-x="705" vert-adv-y="2048"  />

      
      <glyph glyph-name="uni6b" unicode="&#x6b;" d="M1199 0L951 0L503 489L381 373L381 0L193 0L193 1556L381 1556L381 558L924 1117L1161 1117L642 601L1199 0Z"  horiz-adv-x="1212" vert-adv-y="2048"  />

      
      <glyph glyph-name="uni6c" unicode="&#x6c;" d="M375 0L187 0L187 1556L375 1556L375 0Z"  horiz-adv-x="562" vert-adv-y="2048"  />

      
      <glyph glyph-name="uni6d" unicode="&#x6d;" d="M1815 0L1627 0L1627 636Q1627 708 1620.50 775Q1614 842 1593 882Q1570 925 1527 947Q1484 969 1403 969Q1324 969 1245 929.50Q1166 890 1087 829Q1090 806 1092 775.50Q1094 745 1094 715L1094 0L906 0L906 636Q906 710 899.50 776.50Q893 843 872 883Q849 926 806 947.50Q763 969 682 969Q605 969 527.50 931Q450 893 373 834L373 0L185 0L185 1117L373 1117L373 993Q461 1066 548.50 1107Q636 1148 735 1148Q849 1148 928.50 1100Q1008 1052 1047 967Q1161 1063 1255 1105.50Q1349 1148 1456 1148Q1640 1148 1727.50 1036.50Q1815 925 1815 725L1815 0Z"  horiz-adv-x="1992" vert-adv-y="2048"  />

      
      <glyph glyph-name="uni6e" unicode="&#x6e;" d="M1119 0L931 0L931 636Q931 713 922 780.50Q913 848 889 886Q864 928 817 948.50Q770 969 695 969Q618 969 534 931Q450 893 373 834L373 0L185 0L185 1117L373 1117L373 993Q461 1066 555 1107Q649 1148 748 1148Q929 1148 1024 1039Q1119 930 1119 725L1119 0Z"  horiz-adv-x="1296" vert-adv-y="2048"  />

      
      <glyph glyph-name="uni6f" unicode="&#x6f;" d="M1137 558Q1137 285 997 127Q857-31 622-31Q385-31 245.50 127Q106 285 106 558Q106 831 245.50 989.50Q385 1148 622 1148Q857 1148 997 989.50Q1137 831 1137 558M943 558Q943 775 858 880.50Q773 986 622 986Q469 986 384.50 880.50Q300 775 300 558Q300 348 385 239.50Q470 131 622 131Q772 131 857.50 238.50Q943 346 943 558Z"  horiz-adv-x="1243" vert-adv-y="2048"  />

      
      <glyph glyph-name="uni70" unicode="&#x70;" d="M1168 572Q1168 436 1129 323.50Q1090 211 1019 133Q953 59 863.50 18.50Q774-22 674-22Q587-22 516.50-3Q446 16 373 56L373-412L185-412L185 1117L373 1117L373 1000Q448 1063 541.50 1105.50Q635 1148 741 1148Q943 1148 1055.50 995.50Q1168 843 1168 572M974 567Q974 769 905 869Q836 969 693 969Q612 969 530 934Q448 899 373 842L373 209Q453 173 510.50 160Q568 147 641 147Q798 147 886 253Q974 359 974 567Z"  horiz-adv-x="1276" vert-adv-y="2048"  />

      
      <glyph glyph-name="uni71" unicode="&#x71;" d="M1091-412L903-412L903 126Q816 51 730 14.50Q644-22 544-22Q345-22 226.50 131.50Q108 285 108 555Q108 699 149.50 809.50Q191 920 259 995Q325 1068 414 1108Q503 1148 602 1148Q692 1148 761.50 1128Q831 1108 903 1069L915 1117L1091 1117L1091-412M903 284L903 916Q825 951 765 965Q705 979 635 979Q472 979 387 868.50Q302 758 302 564Q302 368 370.50 262.50Q439 157 586 157Q668 157 750 192.50Q832 228 903 284Z"  horiz-adv-x="1276" vert-adv-y="2048"  />

      
      <glyph glyph-name="uni72" unicode="&#x72;" d="M882 912L872 912Q830 922 790.50 926.50Q751 931 697 931Q610 931 529 892.50Q448 854 373 793L373 0L185 0L185 1117L373 1117L373 952Q485 1042 570.50 1079.50Q656 1117 745 1117Q794 1117 816 1114.50Q838 1112 882 1105L882 912Z"  horiz-adv-x="874" vert-adv-y="2048"  />

      
      <glyph glyph-name="uni73" unicode="&#x73;" d="M983 322Q983 169 856.50 71Q730-27 511-27Q387-27 283.50 2.50Q180 32 110 67L110 278L120 278Q209 211 318 171.50Q427 132 527 132Q651 132 721 172Q791 212 791 298Q791 364 753 398Q715 432 607 456Q567 465 502.50 477Q438 489 385 503Q238 542 176.50 617.50Q115 693 115 803Q115 872 143.50 933Q172 994 230 1042Q286 1089 372.50 1116.50Q459 1144 566 1144Q666 1144 768.50 1119.50Q871 1095 939 1060L939 859L929 859Q857 912 754 948.50Q651 985 552 985Q449 985 378 945.50Q307 906 307 828Q307 759 350 724Q392 689 486 667Q538 655 602.50 643Q667 631 710 621Q841 591 912 518Q983 444 983 322Z"  horiz-adv-x="1067" vert-adv-y="2048"  />

      
      <glyph glyph-name="uni74" unicode="&#x74;" d="M765 10Q712-4 649.50-13Q587-22 538-22Q367-22 278 70Q189 162 189 365L189 959L62 959L62 1117L189 1117L189 1438L377 1438L377 1117L765 1117L765 959L377 959L377 450Q377 362 381 312.50Q385 263 409 220Q431 180 469.50 161.50Q508 143 587 143Q633 143 683 156.50Q733 170 755 179L765 179L765 10Z"  horiz-adv-x="807" vert-adv-y="2048"  />

      
      <glyph glyph-name="uni75" unicode="&#x75;" d="M1111 0L923 0L923 124Q828 49 741 9Q654-31 549-31Q373-31 275 76.50Q177 184 177 392L177 1117L365 1117L365 481Q365 396 373 335.50Q381 275 407 232Q434 188 477 168Q520 148 602 148Q675 148 761.50 186Q848 224 923 283L923 1117L1111 1117L1111 0Z"  horiz-adv-x="1296" vert-adv-y="2048"  />

      
      <glyph glyph-name="uni76" unicode="&#x76;" d="M1151 1117L699 0L510 0L61 1117L265 1117L611 228L954 1117L1151 1117Z"  horiz-adv-x="1212" vert-adv-y="2048"  />

      
      <glyph glyph-name="uni77" unicode="&#x77;" d="M1590 1117L1299 0L1125 0L838 861L553 0L380 0L86 1117L282 1117L487 252L766 1117L921 1117L1207 252L1401 1117L1590 1117Z"  horiz-adv-x="1676" vert-adv-y="2048"  />

      
      <glyph glyph-name="uni78" unicode="&#x78;" d="M1152 0L915 0L598 429L279 0L60 0L496 557L64 1117L301 1117L616 695L932 1117L1152 1117L713 567L1152 0Z"  horiz-adv-x="1212" vert-adv-y="2048"  />

      
      <glyph glyph-name="uni79" unicode="&#x79;" d="M1151 1117L499-412L298-412L506 54L61 1117L265 1117L608 289L954 1117L1151 1117Z"  horiz-adv-x="1212" vert-adv-y="2048"  />

      
      <glyph glyph-name="uni7a" unicode="&#x7a;" d="M995 0L93 0L93 139L744 960L107 960L107 1117L978 1117L978 983L324 159L995 159L995 0Z"  horiz-adv-x="1076" vert-adv-y="2048"  />

      
      <glyph glyph-name="uni7b" unicode="&#x7b;" d="M1113-392L963-392Q784-392 672.50-292.50Q561-193 561-5L561 144Q561 313 478 408.50Q395 504 224 504L173 504L173 660L224 660Q395 660 478 755.50Q561 851 561 1020L561 1169Q561 1357 672.50 1456.50Q784 1556 963 1556L1113 1556L1113 1418L999 1418Q863 1418 801.50 1355Q740 1292 740 1152L740 977Q740 838 663 743.50Q586 649 449 594L449 570Q586 515 663 420.50Q740 326 740 187L740 12Q740-128 801.50-191Q863-254 999-254L1113-254L1113-392Z"  horiz-adv-x="1300" vert-adv-y="2048"  />

      
      <glyph glyph-name="uni7c" unicode="&#x7c;" d="M552-392L378-392L378 1556L552 1556L552-392Z"  horiz-adv-x="930" vert-adv-y="2048"  />

      
      <glyph glyph-name="uni7d" unicode="&#x7d;" d="M1127 504L1076 504Q905 504 822 408.50Q739 313 739 144L739-5Q739-193 627.50-292.50Q516-392 337-392L187-392L187-254L301-254Q437-254 498.50-191Q560-128 560 12L560 187Q560 326 637 420.50Q714 515 851 570L851 594Q714 649 637 743.50Q560 838 560 977L560 1152Q560 1292 498.50 1355Q437 1418 301 1418L187 1418L187 1556L337 1556Q516 1556 627.50 1456.50Q739 1357 739 1169L739 1020Q739 851 822 755.50Q905 660 1076 660L1127 660L1127 504Z"  horiz-adv-x="1300" vert-adv-y="2048"  />

      
      <glyph glyph-name="uni7e" unicode="&#x7e;" d="M1489 927Q1487 828 1466.50 732Q1446 636 1401 561Q1355 484 1290 440Q1225 396 1125 396Q1031 396 958 435.50Q885 475 801 577Q699 702 653 734Q607 766 557 766Q463 766 413 678.50Q363 591 354 395L187 395Q189 495 209.50 589.50Q230 684 274 761Q317 835 386 880.50Q455 926 551 926Q644 926 717.50 887.50Q791 849 876 745Q956 647 1007 601.50Q1058 556 1119 556Q1222 556 1270.50 657Q1319 758 1322 927L1489 927Z"  horiz-adv-x="1676" vert-adv-y="2048"  />

      
      <glyph glyph-name="unic4" unicode="&#xc4;" d="M1374 0L1163 0L1017 415L373 415L227 0L26 0L568 1489L832 1489L1374 0M956 585L695 1316L433 585L956 585M1005 1677L806 1677L806 1872L1005 1872L1005 1677M592 1677L393 1677L393 1872L592 1872L592 1677Z"  horiz-adv-x="1400" vert-adv-y="2048"  />

      
      <glyph glyph-name="unic5" unicode="&#xc5;" d="M1374 0L1163 0L1015 415L375 415L227 0L26 0L545 1407Q456 1451 402.50 1530.50Q349 1610 349 1712Q349 1855 451 1952Q553 2049 699 2049Q846 2049 947.50 1952Q1049 1855 1049 1712Q1049 1612 996.50 1530.50Q944 1449 855 1407L1374 0M899 1710Q899 1796 842 1853.50Q785 1911 699 1911Q613 1911 556 1853Q499 1795 499 1710Q499 1624 556.50 1566.50Q614 1509 699 1509Q785 1509 842 1566.50Q899 1624 899 1710M953 585L695 1300L436 585L953 585Z"  horiz-adv-x="1400" vert-adv-y="2048"  />

      
      <glyph glyph-name="unic7" unicode="&#xc7;" d="M1350 108Q1295 84 1250.50 63Q1206 42 1134 19Q1123 16 1110 11.50Q1097 7 1079 4Q1081-15 1082.50-40.50Q1084-66 1084-89Q1084-251 990.50-337Q897-423 750-423Q712-423 652.50-416Q593-409 548-397L548-235L557-235Q583-245 628.50-259Q674-273 724-273Q830-273 879-233Q928-193 928-107Q928-88 927-65.50Q926-43 924-23Q905-25 883.50-26Q862-27 844-27Q682-27 549.50 18.50Q417 64 319 161Q223 256 169 402.50Q115 549 115 743Q115 927 167 1072Q219 1217 317 1317Q412 1414 546.50 1465Q681 1516 845 1516Q965 1516 1084.50 1487Q1204 1458 1350 1385L1350 1150L1335 1150Q1212 1253 1091 1300Q970 1347 832 1347Q719 1347 628.50 1310.50Q538 1274 467 1197Q398 1122 359.50 1007.50Q321 893 321 743Q321 586 363.50 473Q406 360 473 289Q543 215 636.50 179.50Q730 144 834 144Q977 144 1102 193Q1227 242 1336 340L1350 340L1350 108Z"  horiz-adv-x="1430" vert-adv-y="2048"  />

      
      <glyph glyph-name="unic9" unicode="&#xc9;" d="M1181 0L200 0L200 1489L1181 1489L1181 1313L398 1313L398 905L1181 905L1181 729L398 729L398 176L1181 176L1181 0M993 2049L720 1675L571 1675L750 2049L993 2049Z"  horiz-adv-x="1295" vert-adv-y="2048"  />

      
      <glyph glyph-name="unid1" unicode="&#xd1;" d="M1336 0L1091 0L385 1332L385 0L200 0L200 1489L507 1489L1151 273L1151 1489L1336 1489L1336 0M1208 1992Q1197 1840 1131 1763Q1065 1686 954 1686Q900 1686 854 1705.50Q808 1725 767 1762Q720 1805 687.50 1826.50Q655 1848 616 1848Q564 1848 538 1803Q512 1758 508 1682L377 1682Q385 1833 456 1910Q527 1987 630 1987Q680 1987 726.50 1967.50Q773 1948 815 1912Q862 1871 898.50 1850.50Q935 1830 968 1830Q1019 1830 1047.50 1876Q1076 1922 1079 1992L1208 1992Z"  horiz-adv-x="1532" vert-adv-y="2048"  />

      
      <glyph glyph-name="unid6" unicode="&#xd6;" d="M1307 1318Q1398 1218 1446.50 1073Q1495 928 1495 744Q1495 560 1445.50 414.50Q1396 269 1307 172Q1215 71 1089.50 20Q964-31 803-31Q646-31 517.50 21Q389 73 299 172Q209 271 160.50 415Q112 559 112 744Q112 926 160 1070.50Q208 1215 300 1318Q388 1416 518.50 1468Q649 1520 803 1520Q963 1520 1090.50 1467.50Q1218 1415 1307 1318M1289 744Q1289 1034 1159 1191.50Q1029 1349 804 1349Q577 1349 447.50 1191.50Q318 1034 318 744Q318 451 450 295.50Q582 140 804 140Q1026 140 1157.50 295.50Q1289 451 1289 744M1108 1677L909 1677L909 1872L1108 1872L1108 1677M695 1677L496 1677L496 1872L695 1872L695 1677Z"  horiz-adv-x="1612" vert-adv-y="2048"  />

      
      <glyph glyph-name="unidc" unicode="&#xdc;" d="M1321 598Q1321 436 1285.50 315.50Q1250 195 1169 115Q1092 39 989 4Q886-31 749-31Q609-31 505 6Q401 43 330 115Q249 197 213.50 313Q178 429 178 598L178 1489L376 1489L376 588Q376 467 392.50 397Q409 327 448 270Q492 205 567.50 172Q643 139 749 139Q856 139 931 171.50Q1006 204 1051 270Q1090 327 1106.50 400.50Q1123 474 1123 583L1123 1489L1321 1489L1321 598M1056 1677L857 1677L857 1872L1056 1872L1056 1677M643 1677L444 1677L444 1872L643 1872L643 1677Z"  horiz-adv-x="1499" vert-adv-y="2048"  />

      
      <glyph glyph-name="unie1" unicode="&#xe1;" d="M1053 0L866 0L866 119Q841 102 798.50 71.50Q756 41 716 23Q669 0 608-15.50Q547-31 465-31Q314-31 209 69Q104 169 104 324Q104 451 158.50 529.50Q213 608 314 653Q416 698 559 714Q702 730 866 738L866 767Q866 831 843.50 873Q821 915 779 939Q739 962 683 970Q627 978 566 978Q492 978 401 958.50Q310 939 213 902L203 902L203 1093Q258 1108 362 1126Q466 1144 567 1144Q685 1144 772.50 1124.50Q860 1105 924 1058Q987 1012 1020 939Q1053 866 1053 758L1053 0M866 275L866 586Q780 581 663.50 571Q547 561 479 542Q398 519 348 470.50Q298 422 298 337Q298 241 356 192.50Q414 144 533 144Q632 144 714 182.50Q796 221 866 275M934 1676L661 1302L512 1302L691 1676L934 1676Z"  horiz-adv-x="1230" vert-adv-y="2048"  />

      
      <glyph glyph-name="unie0" unicode="&#xe0;" d="M1053 0L866 0L866 119Q841 102 798.50 71.50Q756 41 716 23Q669 0 608-15.50Q547-31 465-31Q314-31 209 69Q104 169 104 324Q104 451 158.50 529.50Q213 608 314 653Q416 698 559 714Q702 730 866 738L866 767Q866 831 843.50 873Q821 915 779 939Q739 962 683 970Q627 978 566 978Q492 978 401 958.50Q310 939 213 902L203 902L203 1093Q258 1108 362 1126Q466 1144 567 1144Q685 1144 772.50 1124.50Q860 1105 924 1058Q987 1012 1020 939Q1053 866 1053 758L1053 0M866 275L866 586Q780 581 663.50 571Q547 561 479 542Q398 519 348 470.50Q298 422 298 337Q298 241 356 192.50Q414 144 533 144Q632 144 714 182.50Q796 221 866 275M738 1302L589 1302L316 1676L559 1676L738 1302Z"  horiz-adv-x="1230" vert-adv-y="2048"  />

      
      <glyph glyph-name="unie2" unicode="&#xe2;" d="M1053 0L866 0L866 119Q841 102 798.50 71.50Q756 41 716 23Q669 0 608-15.50Q547-31 465-31Q314-31 209 69Q104 169 104 324Q104 451 158.50 529.50Q213 608 314 653Q416 698 559 714Q702 730 866 738L866 767Q866 831 843.50 873Q821 915 779 939Q739 962 683 970Q627 978 566 978Q492 978 401 958.50Q310 939 213 902L203 902L203 1093Q258 1108 362 1126Q466 1144 567 1144Q685 1144 772.50 1124.50Q860 1105 924 1058Q987 1012 1020 939Q1053 866 1053 758L1053 0M866 275L866 586Q780 581 663.50 571Q547 561 479 542Q398 519 348 470.50Q298 422 298 337Q298 241 356 192.50Q414 144 533 144Q632 144 714 182.50Q796 221 866 275M961 1297L802 1297L617 1553L433 1297L278 1297L506 1676L733 1676L961 1297Z"  horiz-adv-x="1230" vert-adv-y="2048"  />

      
      <glyph glyph-name="unie4" unicode="&#xe4;" d="M1053 0L866 0L866 119Q841 102 798.50 71.50Q756 41 716 23Q669 0 608-15.50Q547-31 465-31Q314-31 209 69Q104 169 104 324Q104 451 158.50 529.50Q213 608 314 653Q416 698 559 714Q702 730 866 738L866 767Q866 831 843.50 873Q821 915 779 939Q739 962 683 970Q627 978 566 978Q492 978 401 958.50Q310 939 213 902L203 902L203 1093Q258 1108 362 1126Q466 1144 567 1144Q685 1144 772.50 1124.50Q860 1105 924 1058Q987 1012 1020 939Q1053 866 1053 758L1053 0M866 275L866 586Q780 581 663.50 571Q547 561 479 542Q398 519 348 470.50Q298 422 298 337Q298 241 356 192.50Q414 144 533 144Q632 144 714 182.50Q796 221 866 275M926 1304L727 1304L727 1499L926 1499L926 1304M513 1304L314 1304L314 1499L513 1499L513 1304Z"  horiz-adv-x="1230" vert-adv-y="2048"  />

      
      <glyph glyph-name="unie3" unicode="&#xe3;" d="M1053 0L866 0L866 119Q841 102 798.50 71.50Q756 41 716 23Q669 0 608-15.50Q547-31 465-31Q314-31 209 69Q104 169 104 324Q104 451 158.50 529.50Q213 608 314 653Q416 698 559 714Q702 730 866 738L866 767Q866 831 843.50 873Q821 915 779 939Q739 962 683 970Q627 978 566 978Q492 978 401 958.50Q310 939 213 902L203 902L203 1093Q258 1108 362 1126Q466 1144 567 1144Q685 1144 772.50 1124.50Q860 1105 924 1058Q987 1012 1020 939Q1053 866 1053 758L1053 0M866 275L866 586Q780 581 663.50 571Q547 561 479 542Q398 519 348 470.50Q298 422 298 337Q298 241 356 192.50Q414 144 533 144Q632 144 714 182.50Q796 221 866 275M1038 1619Q1027 1467 961 1390Q895 1313 784 1313Q730 1313 684 1332.50Q638 1352 597 1389Q550 1432 517.50 1453.50Q485 1475 446 1475Q394 1475 368 1430Q342 1385 338 1309L207 1309Q215 1460 286 1537Q357 1614 460 1614Q510 1614 556.50 1594.50Q603 1575 645 1539Q692 1498 728.50 1477.50Q765 1457 798 1457Q849 1457 877.50 1503Q906 1549 909 1619L1038 1619Z"  horiz-adv-x="1230" vert-adv-y="2048"  />

      
      <glyph glyph-name="unie5" unicode="&#xe5;" d="M1053 0L866 0L866 119Q841 102 798.50 71.50Q756 41 716 23Q669 0 608-15.50Q547-31 465-31Q314-31 209 69Q104 169 104 324Q104 451 158.50 529.50Q213 608 314 653Q416 698 559 714Q702 730 866 738L866 767Q866 831 843.50 873Q821 915 779 939Q739 962 683 970Q627 978 566 978Q492 978 401 958.50Q310 939 213 902L203 902L203 1093Q258 1108 362 1126Q466 1144 567 1144Q685 1144 772.50 1124.50Q860 1105 924 1058Q987 1012 1020 939Q1053 866 1053 758L1053 0M866 275L866 586Q780 581 663.50 571Q547 561 479 542Q398 519 348 470.50Q298 422 298 337Q298 241 356 192.50Q414 144 533 144Q632 144 714 182.50Q796 221 866 275M956 1630Q956 1487 854 1388Q752 1289 606 1289Q462 1289 359 1387.50Q256 1486 256 1630Q256 1773 358 1871Q460 1969 606 1969Q753 1969 854.50 1871Q956 1773 956 1630M811 1630Q811 1716 752.50 1775.50Q694 1835 606 1835Q518 1835 459.50 1776Q401 1717 401 1630Q401 1543 460 1484Q519 1425 606 1425Q694 1425 752.50 1484Q811 1543 811 1630Z"  horiz-adv-x="1230" vert-adv-y="2048"  />

      
      <glyph glyph-name="unie7" unicode="&#xe7;" d="M1011 70Q978 55 939.50 39.50Q901 24 872 15Q875-4 877.50-32.50Q880-61 880-89Q880-251 788.50-337Q697-423 551-423Q514-423 456-416Q398-409 353-397L353-237L362-237Q388-247 432-260Q476-273 526-273Q630-273 679-234Q728-195 728-107Q728-85 726.50-62Q725-39 723-19Q707-21 692.50-23Q678-25 653-25Q532-25 431 10.50Q330 46 258 118Q185 190 145 300Q105 410 105 557Q105 831 255.50 987Q406 1143 653 1143Q749 1143 841.50 1116Q934 1089 1011 1050L1011 841L1001 841Q915 908 823.50 944Q732 980 645 980Q485 980 392.50 872.50Q300 765 300 557Q300 355 390.50 246.50Q481 138 645 138Q702 138 761 153Q820 168 867 192Q908 213 944 236.50Q980 260 1001 277L1011 277L1011 70Z"  horiz-adv-x="1067" vert-adv-y="2048"  />

      
      <glyph glyph-name="unie9" unicode="&#xe9;" d="M1120 539L297 539Q297 436 328 359.50Q359 283 413 234Q465 186 536.50 162Q608 138 694 138Q808 138 923.50 183.50Q1039 229 1088 273L1098 273L1098 68Q1003 28 904 1Q805-26 696-26Q418-26 262 124.50Q106 275 106 552Q106 826 255.50 987Q405 1148 649 1148Q875 1148 997.50 1016Q1120 884 1120 641L1120 539M937 683Q936 831 862.50 912Q789 993 639 993Q488 993 398.50 904Q309 815 297 683L937 683M960 1676L687 1302L538 1302L717 1676L960 1676Z"  horiz-adv-x="1220" vert-adv-y="2048"  />

      
      <glyph glyph-name="unie8" unicode="&#xe8;" d="M1120 539L297 539Q297 436 328 359.50Q359 283 413 234Q465 186 536.50 162Q608 138 694 138Q808 138 923.50 183.50Q1039 229 1088 273L1098 273L1098 68Q1003 28 904 1Q805-26 696-26Q418-26 262 124.50Q106 275 106 552Q106 826 255.50 987Q405 1148 649 1148Q875 1148 997.50 1016Q1120 884 1120 641L1120 539M937 683Q936 831 862.50 912Q789 993 639 993Q488 993 398.50 904Q309 815 297 683L937 683M759 1302L610 1302L337 1676L580 1676L759 1302Z"  horiz-adv-x="1220" vert-adv-y="2048"  />

      
      <glyph glyph-name="uniea" unicode="&#xea;" d="M1120 539L297 539Q297 436 328 359.50Q359 283 413 234Q465 186 536.50 162Q608 138 694 138Q808 138 923.50 183.50Q1039 229 1088 273L1098 273L1098 68Q1003 28 904 1Q805-26 696-26Q418-26 262 124.50Q106 275 106 552Q106 826 255.50 987Q405 1148 649 1148Q875 1148 997.50 1016Q1120 884 1120 641L1120 539M937 683Q936 831 862.50 912Q789 993 639 993Q488 993 398.50 904Q309 815 297 683L937 683M986 1297L827 1297L642 1553L458 1297L303 1297L531 1676L758 1676L986 1297Z"  horiz-adv-x="1220" vert-adv-y="2048"  />

      
      <glyph glyph-name="unieb" unicode="&#xeb;" d="M1120 539L297 539Q297 436 328 359.50Q359 283 413 234Q465 186 536.50 162Q608 138 694 138Q808 138 923.50 183.50Q1039 229 1088 273L1098 273L1098 68Q1003 28 904 1Q805-26 696-26Q418-26 262 124.50Q106 275 106 552Q106 826 255.50 987Q405 1148 649 1148Q875 1148 997.50 1016Q1120 884 1120 641L1120 539M937 683Q936 831 862.50 912Q789 993 639 993Q488 993 398.50 904Q309 815 297 683L937 683M951 1304L752 1304L752 1499L951 1499L951 1304M538 1304L339 1304L339 1499L538 1499L538 1304Z"  horiz-adv-x="1220" vert-adv-y="2048"  />

      
      <glyph glyph-name="unied" unicode="&#xed;" d="M375 0L187 0L187 1117L375 1117L375 0M582 1676L309 1302L160 1302L339 1676L582 1676Z"  horiz-adv-x="562" vert-adv-y="2048"  />

      
      <glyph glyph-name="uniec" unicode="&#xec;" d="M375 0L187 0L187 1117L375 1117L375 0M401 1302L252 1302L-21 1676L222 1676L401 1302Z"  horiz-adv-x="562" vert-adv-y="2048"  />

      
      <glyph glyph-name="uniee" unicode="&#xee;" d="M572 1297L421 1297L278 1564L136 1297L-11 1297L167 1676L394 1676L572 1297M375 0L187 0L187 1117L375 1117L375 0Z"  horiz-adv-x="562" vert-adv-y="2048"  />

      
      <glyph glyph-name="unief" unicode="&#xef;" d="M557 1304L368 1304L368 1499L557 1499L557 1304M194 1304L5 1304L5 1499L194 1499L194 1304M375 0L187 0L187 1117L375 1117L375 0Z"  horiz-adv-x="562" vert-adv-y="2048"  />

      
      <glyph glyph-name="unif1" unicode="&#xf1;" d="M1119 0L931 0L931 636Q931 713 922 780.50Q913 848 889 886Q864 928 817 948.50Q770 969 695 969Q618 969 534 931Q450 893 373 834L373 0L185 0L185 1117L373 1117L373 993Q461 1066 555 1107Q649 1148 748 1148Q929 1148 1024 1039Q1119 930 1119 725L1119 0M1075 1619Q1064 1467 998 1390Q932 1313 821 1313Q767 1313 721 1332.50Q675 1352 634 1389Q587 1432 554.50 1453.50Q522 1475 483 1475Q431 1475 405 1430Q379 1385 375 1309L244 1309Q252 1460 323 1537Q394 1614 497 1614Q547 1614 593.50 1594.50Q640 1575 682 1539Q729 1498 765.50 1477.50Q802 1457 835 1457Q886 1457 914.50 1503Q943 1549 946 1619L1075 1619Z"  horiz-adv-x="1296" vert-adv-y="2048"  />

      
      <glyph glyph-name="unif3" unicode="&#xf3;" d="M1137 558Q1137 285 997 127Q857-31 622-31Q385-31 245.50 127Q106 285 106 558Q106 831 245.50 989.50Q385 1148 622 1148Q857 1148 997 989.50Q1137 831 1137 558M943 558Q943 775 858 880.50Q773 986 622 986Q469 986 384.50 880.50Q300 775 300 558Q300 348 385 239.50Q470 131 622 131Q772 131 857.50 238.50Q943 346 943 558M933 1676L660 1302L511 1302L690 1676L933 1676Z"  horiz-adv-x="1243" vert-adv-y="2048"  />

      
      <glyph glyph-name="unif2" unicode="&#xf2;" d="M1137 558Q1137 285 997 127Q857-31 622-31Q385-31 245.50 127Q106 285 106 558Q106 831 245.50 989.50Q385 1148 622 1148Q857 1148 997 989.50Q1137 831 1137 558M943 558Q943 775 858 880.50Q773 986 622 986Q469 986 384.50 880.50Q300 775 300 558Q300 348 385 239.50Q470 131 622 131Q772 131 857.50 238.50Q943 346 943 558M732 1302L583 1302L310 1676L553 1676L732 1302Z"  horiz-adv-x="1243" vert-adv-y="2048"  />

      
      <glyph glyph-name="unif4" unicode="&#xf4;" d="M1137 558Q1137 285 997 127Q857-31 622-31Q385-31 245.50 127Q106 285 106 558Q106 831 245.50 989.50Q385 1148 622 1148Q857 1148 997 989.50Q1137 831 1137 558M943 558Q943 775 858 880.50Q773 986 622 986Q469 986 384.50 880.50Q300 775 300 558Q300 348 385 239.50Q470 131 622 131Q772 131 857.50 238.50Q943 346 943 558M963 1297L804 1297L619 1553L435 1297L280 1297L508 1676L735 1676L963 1297Z"  horiz-adv-x="1243" vert-adv-y="2048"  />

      
      <glyph glyph-name="unif6" unicode="&#xf6;" d="M1137 558Q1137 285 997 127Q857-31 622-31Q385-31 245.50 127Q106 285 106 558Q106 831 245.50 989.50Q385 1148 622 1148Q857 1148 997 989.50Q1137 831 1137 558M943 558Q943 775 858 880.50Q773 986 622 986Q469 986 384.50 880.50Q300 775 300 558Q300 348 385 239.50Q470 131 622 131Q772 131 857.50 238.50Q943 346 943 558M928 1304L729 1304L729 1499L928 1499L928 1304M515 1304L316 1304L316 1499L515 1499L515 1304Z"  horiz-adv-x="1243" vert-adv-y="2048"  />

      
      <glyph glyph-name="unif5" unicode="&#xf5;" d="M1137 558Q1137 285 997 127Q857-31 622-31Q385-31 245.50 127Q106 285 106 558Q106 831 245.50 989.50Q385 1148 622 1148Q857 1148 997 989.50Q1137 831 1137 558M943 558Q943 775 858 880.50Q773 986 622 986Q469 986 384.50 880.50Q300 775 300 558Q300 348 385 239.50Q470 131 622 131Q772 131 857.50 238.50Q943 346 943 558M1038 1619Q1027 1467 961 1390Q895 1313 784 1313Q730 1313 684 1332.50Q638 1352 597 1389Q550 1432 517.50 1453.50Q485 1475 446 1475Q394 1475 368 1430Q342 1385 338 1309L207 1309Q215 1460 286 1537Q357 1614 460 1614Q510 1614 556.50 1594.50Q603 1575 645 1539Q692 1498 728.50 1477.50Q765 1457 798 1457Q849 1457 877.50 1503Q906 1549 909 1619L1038 1619Z"  horiz-adv-x="1243" vert-adv-y="2048"  />

      
      <glyph glyph-name="unifa" unicode="&#xfa;" d="M1111 0L923 0L923 124Q828 49 741 9Q654-31 549-31Q373-31 275 76.50Q177 184 177 392L177 1117L365 1117L365 481Q365 396 373 335.50Q381 275 407 232Q434 188 477 168Q520 148 602 148Q675 148 761.50 186Q848 224 923 283L923 1117L1111 1117L1111 0M945 1676L672 1302L523 1302L702 1676L945 1676Z"  horiz-adv-x="1296" vert-adv-y="2048"  />

      
      <glyph glyph-name="unif9" unicode="&#xf9;" d="M1111 0L923 0L923 124Q828 49 741 9Q654-31 549-31Q373-31 275 76.50Q177 184 177 392L177 1117L365 1117L365 481Q365 396 373 335.50Q381 275 407 232Q434 188 477 168Q520 148 602 148Q675 148 761.50 186Q848 224 923 283L923 1117L1111 1117L1111 0M764 1302L615 1302L342 1676L585 1676L764 1302Z"  horiz-adv-x="1296" vert-adv-y="2048"  />

      
      <glyph glyph-name="unifb" unicode="&#xfb;" d="M1111 0L923 0L923 124Q828 49 741 9Q654-31 549-31Q373-31 275 76.50Q177 184 177 392L177 1117L365 1117L365 481Q365 396 373 335.50Q381 275 407 232Q434 188 477 168Q520 148 602 148Q675 148 761.50 186Q848 224 923 283L923 1117L1111 1117L1111 0M985 1297L826 1297L641 1553L457 1297L302 1297L530 1676L757 1676L985 1297Z"  horiz-adv-x="1296" vert-adv-y="2048"  />

      
      <glyph glyph-name="unifc" unicode="&#xfc;" d="M1111 0L923 0L923 124Q828 49 741 9Q654-31 549-31Q373-31 275 76.50Q177 184 177 392L177 1117L365 1117L365 481Q365 396 373 335.50Q381 275 407 232Q434 188 477 168Q520 148 602 148Q675 148 761.50 186Q848 224 923 283L923 1117L1111 1117L1111 0M955 1304L756 1304L756 1499L955 1499L955 1304M542 1304L343 1304L343 1499L542 1499L542 1304Z"  horiz-adv-x="1296" vert-adv-y="2048"  />

      
      <glyph glyph-name="uni2020" unicode="&#x2020;" d="M1115 1034L712 1039L717 135L585 135L590 1039L187 1034L187 1163L590 1158L585 1556L717 1556L712 1158L1115 1163L1115 1034Z"  horiz-adv-x="1302" vert-adv-y="2048"  />

      
      <glyph glyph-name="unib0" unicode="&#xb0;" d="M956 1116Q956 948 840 832Q724 716 555 716Q386 716 270 831.50Q154 947 154 1116Q154 1284 270 1400Q386 1516 555 1516Q725 1516 840.50 1400Q956 1284 956 1116M791 1116Q791 1218 724 1287.50Q657 1357 555 1357Q453 1357 386 1287.50Q319 1218 319 1116Q319 1012 387.50 943.50Q456 875 555 875Q657 875 724 945Q791 1015 791 1116Z"  horiz-adv-x="1110" vert-adv-y="2048"  />

      
      <glyph glyph-name="unia2" unicode="&#xa2;" d="M1120 74Q1049 44 959 20.50Q869-3 765-6L765-361L647-361L647-2Q420 19 289.50 163Q159 307 159 557Q159 799 292.50 948.50Q426 1098 647 1120L647 1475L765 1475L765 1124Q869 1121 962 1099Q1055 1077 1120 1046L1120 843L1109 843Q1054 887 967 928Q880 969 765 978L765 139Q885 149 971.50 191.50Q1058 234 1109 275L1120 275L1120 74M647 142L647 976Q512 956 431 851Q350 746 350 557Q350 376 426 271Q502 166 647 142Z"  horiz-adv-x="1302" vert-adv-y="2048"  />

      
      <glyph glyph-name="unia3" unicode="&#xa3;" d="M1163 0L137 0L137 207Q255 239 306.50 333.50Q358 428 358 613L182 613L182 751L358 751L358 1061Q358 1261 484.50 1389.50Q611 1518 816 1518Q921 1518 997 1501Q1073 1484 1137 1467L1137 1261L1127 1261Q1065 1303 989 1327Q913 1351 827 1351Q687 1351 617.50 1268.50Q548 1186 548 1042L548 751L963 751L963 613L548 613L548 552Q548 426 486 332.50Q424 239 326 182L326 171L1163 171L1163 0Z"  horiz-adv-x="1302" vert-adv-y="2048"  />

      
      <glyph glyph-name="unia7" unicode="&#xa7;" d="M1128 601Q1128 495 1069 414Q1010 333 911 278L911 271Q1008 225 1052 152.50Q1096 80 1096-10Q1096-87 1063-156Q1030-225 965-275Q893-331 796-358Q699-385 575-385Q488-385 404.50-371.50Q321-358 229-327L229-133L239-133Q318-170 408-195Q498-220 606-220Q740-220 821-171.50Q902-123 902-36Q902 20 882.50 52.50Q863 85 818 110Q777 133 705 151.50Q633 170 551 190Q337 242 255 323Q172 404 172 533Q172 631 229 715.50Q286 800 388 857L388 864Q287 912 245 985Q203 1058 203 1147Q203 1228 235 1293.50Q267 1359 334 1411Q398 1461 497.50 1490Q597 1519 725 1519Q812 1519 896 1505Q980 1491 1071 1462L1071 1268L1061 1268Q1003 1295 908.50 1325Q814 1355 693 1355Q566 1355 481.50 1309Q397 1263 397 1176Q397 1119 418.50 1083.50Q440 1048 483 1025Q526 1002 592 983.50Q658 965 749 944Q949 898 1039 819Q1128 740 1128 601M881 399Q909 432 924 464.50Q939 497 939 555Q939 606 922.50 641Q906 676 877 699Q849 723 810 738.50Q771 754 727 766Q688 777 641.50 787.50Q595 798 525 818Q507 809 476 786.50Q445 764 423 740Q399 714 380 671Q361 628 361 579Q361 529 376.50 494Q392 459 421 435Q448 412 488.50 396Q529 380 573 369Q611 359 659 347Q707 335 774 316Q794 327 827 350.50Q860 374 881 399Z"  horiz-adv-x="1302" vert-adv-y="2048"  />

      
      <glyph glyph-name="uni2022" unicode="&#x2022;" d="M932 662Q932 508 822 398.50Q712 289 558 289Q404 289 294.50 398.50Q185 508 185 662Q185 816 294.50 925.50Q404 1035 558 1035Q712 1035 822 925.50Q932 816 932 662Z"  horiz-adv-x="1117" vert-adv-y="2048"  />

      
      <glyph glyph-name="unib6" unicode="&#xb6;" d="M1106-363L958-363L958 1359L744 1359L744-363L595-363L595 593Q389 598 263 722Q137 846 137 1050Q137 1257 267 1373Q397 1489 640 1489L1106 1489L1106-363Z"  horiz-adv-x="1302" vert-adv-y="2048"  />

      
      <glyph glyph-name="unidf" unicode="&#xdf;" d="M1165 481Q1165 267 1029.50 121.50Q894-24 675-24Q631-24 573.50-16.50Q516-9 480 4L480 169L490 169Q532 145 581.50 136Q631 127 687 127Q761 127 816 156Q871 185 904 234Q939 286 954.50 349.50Q970 413 970 489Q970 655 864.50 739.50Q759 824 561 824L561 974Q718 974 795 1033.50Q872 1093 872 1222Q872 1257 861 1290Q850 1323 820 1354Q793 1383 749 1400.50Q705 1418 644 1418Q587 1418 541 1403.50Q495 1389 455 1350Q418 1314 395.50 1248Q373 1182 373 1087L373 0L185 0L185 1080Q185 1204 221 1295.50Q257 1387 321 1449Q381 1507 470.50 1536.50Q560 1566 654 1566Q837 1566 951.50 1479Q1066 1392 1066 1241Q1066 1129 995 1040Q924 951 811 919L811 910Q975 873 1070 761.50Q1165 650 1165 481Z"  horiz-adv-x="1270" vert-adv-y="2048"  />

      
      <glyph glyph-name="uniae" unicode="&#xae;" d="M1889 655Q1889 297 1635.50 43.50Q1382-210 1024-210Q666-210 412.50 43.50Q159 297 159 655Q159 1013 412.50 1266.50Q666 1520 1024 1520Q1382 1520 1635.50 1266.50Q1889 1013 1889 655M1773 655Q1773 965 1553.50 1187Q1334 1409 1024 1409Q714 1409 494.50 1187Q275 965 275 655Q275 345 494.50 123Q714-99 1024-99Q1334-99 1553.50 123Q1773 345 1773 655M1581 215L1358 215L1027 570L865 570L865 215L700 215L700 1130L1012 1130Q1106 1130 1167 1122Q1228 1114 1287 1083Q1350 1049 1379.50 1000.50Q1409 952 1409 879Q1409 782 1352.50 717.50Q1296 653 1197 615L1581 215M1229 868Q1229 904 1215 932Q1201 960 1168 978Q1137 995 1102 1000Q1067 1005 1014 1005L865 1005L865 696L992 696Q1054 696 1099 705.50Q1144 715 1173 738Q1204 763 1216.50 793Q1229 823 1229 868Z"  horiz-adv-x="2048" vert-adv-y="2048"  />

      
      <glyph glyph-name="unia9" unicode="&#xa9;" d="M1889 655Q1889 297 1635.50 43.50Q1382-210 1024-210Q666-210 412.50 43.50Q159 297 159 655Q159 1013 412.50 1266.50Q666 1520 1024 1520Q1382 1520 1635.50 1266.50Q1889 1013 1889 655M1773 655Q1773 965 1553.50 1187Q1334 1409 1024 1409Q714 1409 494.50 1187Q275 965 275 655Q275 345 494.50 123Q714-99 1024-99Q1334-99 1553.50 123Q1773 345 1773 655M1375 258Q1289 219 1209.50 199.50Q1130 180 1052 180Q825 180 693 303Q561 426 561 660Q561 885 695.50 1014Q830 1143 1052 1143Q1141 1143 1227 1119Q1313 1095 1375 1067L1375 886L1359 886Q1305 926 1220.50 961Q1136 996 1047 996Q905 996 825.50 910.50Q746 825 746 660Q746 501 822.50 414Q899 327 1047 327Q1130 327 1208.50 356Q1287 385 1359 437L1375 437L1375 258Z"  horiz-adv-x="2048" vert-adv-y="2048"  />

      
      <glyph glyph-name="uni2122" unicode="&#x2122;" d="M1777 785L1653 785L1653 1402L1633 1402L1396 951L1317 951L1078 1409L1053 1409L1053 785L930 785L930 1489L1168 1489L1359 1107L1550 1489L1777 1489L1777 785M755 1372L526 1372L526 785L399 785L399 1372L170 1372L170 1489L755 1489L755 1372Z"  horiz-adv-x="2000" vert-adv-y="2048"  />

      
      <glyph glyph-name="unib4" unicode="&#xb4;" d="M963 1676L690 1302L541 1302L720 1676L963 1676Z"  horiz-adv-x="1302" vert-adv-y="2048"  />

      
      <glyph glyph-name="unia8" unicode="&#xa8;" d="M958 1304L759 1304L759 1499L958 1499L958 1304M545 1304L346 1304L346 1499L545 1499L545 1304Z"  horiz-adv-x="1302" vert-adv-y="2048"  />

      
      <glyph glyph-name="uni2260" unicode="&#x2260;" d="M1431 362L823 362L719 27L566 27L670 362L245 362L245 518L719 518L803 786L245 786L245 942L851 942L956 1277L1109 1277L1004 942L1431 942L1431 786L955 786L872 518L1431 518L1431 362Z"  horiz-adv-x="1676" vert-adv-y="2048"  />

      
      <glyph glyph-name="unic6" unicode="&#xc6;" d="M1901 0L957 0L957 556L433 556L221 0L14 0L608 1489L1901 1489L1901 1313L1152 1313L1152 905L1901 905L1901 729L1152 729L1152 176L1901 176L1901 0M957 723L957 1324L738 1324L499 723L957 723Z"  horiz-adv-x="2016" vert-adv-y="2048"  />

      
      <glyph glyph-name="unid8" unicode="&#xd8;" d="M1498 744Q1498 560 1448.50 414.50Q1399 269 1310 172Q1218 71 1092.50 20Q967-31 806-31Q691-31 590.50-2Q490 27 411 82L252-146L120-146L325 148Q224 248 169.50 398Q115 548 115 744Q115 926 163 1070.50Q211 1215 303 1318Q391 1416 521.50 1468Q652 1520 806 1520Q924 1520 1021 1492.50Q1118 1465 1200 1410L1342 1611L1474 1611L1286 1343Q1387 1243 1442.50 1094.50Q1498 946 1498 744M1097 1260Q1040 1306 968 1328.50Q896 1351 807 1351Q697 1351 607 1312.50Q517 1274 451 1196Q387 1120 352.50 1005.50Q318 891 318 744Q318 604 347.50 492Q377 380 435 304L1097 1260M1295 744Q1295 883 1265 997Q1235 1111 1177 1186L513 229Q573 184 645.50 161Q718 138 807 138Q917 138 1008.50 178Q1100 218 1162 294Q1229 376 1262 488.50Q1295 601 1295 744Z"  horiz-adv-x="1612" vert-adv-y="2048"  />

      
      <glyph glyph-name="uni221E" unicode="&#x221E;" d="M1887 663Q1887 424 1764.50 290.50Q1642 157 1435 157Q1302 157 1191 233.50Q1080 310 1011 456Q932 305 826.50 231Q721 157 578 157Q387 157 274 292.50Q161 428 161 642Q161 880 286 1014Q411 1148 613 1148Q747 1148 858 1071Q969 994 1037 849Q1116 999 1222.50 1073.50Q1329 1148 1470 1148Q1661 1148 1774 1012.50Q1887 877 1887 663M967 729Q904 846 812 904.50Q720 963 624 963Q486 963 408 879.50Q330 796 330 642Q330 509 393.50 426Q457 343 576 343Q686 343 748 391.50Q810 440 867 534Q901 591 919.50 626.50Q938 662 967 729M1718 663Q1718 797 1654 879.50Q1590 962 1472 962Q1384 962 1319.50 926.50Q1255 891 1181 771Q1151 723 1125.50 671.50Q1100 620 1081 576Q1141 461 1234.50 401.50Q1328 342 1424 342Q1562 342 1640 425Q1718 508 1718 663Z"  horiz-adv-x="2048" vert-adv-y="2048"  />

      
      <glyph glyph-name="unib1" unicode="&#xb1;" d="M1461 179L215 179L215 337L755 337L755 759L215 759L215 917L755 917L755 1462L921 1462L921 917L1461 917L1461 759L921 759L921 337L1461 337L1461 179Z"  horiz-adv-x="1676" vert-adv-y="2048"  />

      
      <glyph glyph-name="uni2264" unicode="&#x2264;" d="M1408 303L254 786L254 910L1408 1393L1408 1210L519 848L1408 486L1408 303M1408 0L254 0L254 160L1408 160L1408 0Z"  horiz-adv-x="1676" vert-adv-y="2048"  />

      
      <glyph glyph-name="uni2265" unicode="&#x2265;" d="M1422 786L268 303L268 486L1157 848L268 1210L268 1393L1422 910L1422 786M1422 0L268 0L268 160L1422 160L1422 0Z"  horiz-adv-x="1676" vert-adv-y="2048"  />

      
      <glyph glyph-name="unia5" unicode="&#xa5;" d="M1191 1489L743 658L743 564L1115 564L1115 426L745 426L745 0L557 0L557 426L187 426L187 564L559 564L559 637L108 1489L320 1489L652 830L988 1489L1191 1489Z"  horiz-adv-x="1302" vert-adv-y="2048"  />

      
      <glyph glyph-name="unib5" unicode="&#xb5;" d="M1124 0L946 0L936 118Q877 53 812.50 16Q748-21 657-21Q571-21 507.50 14Q444 49 378 113L378-412L190-412L190 1117L378 1117L378 279Q410 240 487.50 199Q565 158 656 158Q749 158 815.50 191.50Q882 225 936 285L936 1117L1124 1117L1124 0Z"  horiz-adv-x="1314" vert-adv-y="2048"  />

      
      <glyph glyph-name="uni2202" unicode="&#x2202;" d="M1145 837Q1145 673 1106 493Q1067 313 985 190Q900 66 798.50 17Q697-32 584-32Q392-32 270.50 94.50Q149 221 149 424Q149 652 283.50 796.50Q418 941 620 941Q710 941 789.50 915Q869 889 948 824Q950 850 951 879.50Q952 909 952 935Q952 1152 873 1253Q794 1354 642 1354Q564 1354 472.50 1322.50Q381 1291 303 1236L292 1236L292 1430Q373 1474 473.50 1496.50Q574 1519 670 1519Q807 1519 909.50 1464.50Q1012 1410 1074 1286Q1116 1200 1130.50 1097Q1145 994 1145 837M942 678Q882 725 806 752Q730 779 658 779Q517 779 433 688Q349 597 349 427Q349 282 416.50 205.50Q484 129 596 129Q724 129 805.50 226Q887 323 921 513Q927 546 932.50 586Q938 626 942 678Z"  horiz-adv-x="1302" vert-adv-y="2048"  />

      
      <glyph glyph-name="uni2211" unicode="&#x2211;" d="M1369-189L187-189L187 2L860 670L197 1301L197 1489L1330 1489L1330 1313L439 1313L1087 712L1087 640L421-13L1369-13L1369-189Z"  horiz-adv-x="1489" vert-adv-y="2048"  />

      
      <glyph glyph-name="uni220F" unicode="&#x220F;" d="M1532 1315L1332 1315L1332-193L1134-193L1134 1315L542 1315L542-193L344-193L344 1315L144 1315L144 1489L1532 1489L1532 1315Z"  horiz-adv-x="1676" vert-adv-y="2048"  />

      
      <glyph glyph-name="uni222B" unicode="&#x222B;" d="M1168 1367L1158 1367Q1126 1375 1068.50 1385.50Q1011 1396 979 1396Q850 1396 798 1335Q745 1274 745 1125L745 2Q745-204 641-313Q536-423 348-423Q296-423 241.50-417.50Q187-412 138-402L138-224L148-224Q181-232 235-242.50Q289-253 323-253Q452-253 505-192Q557-131 557 18L557 1141Q557 1345 661 1456Q765 1566 954 1566Q1012 1566 1063 1560.50Q1114 1555 1168 1545L1168 1367Z"  horiz-adv-x="1302" vert-adv-y="2048"  />

      
      <glyph glyph-name="uniaa" unicode="&#xaa;" d="M944 554L774 554L774 648Q746 628 721.50 609.50Q697 591 653 572Q608 552 567.50 541.50Q527 531 454 531Q326 531 238.50 616Q151 701 151 833Q151 939 197.50 1006.50Q244 1074 321 1110Q399 1146 518.50 1161.50Q638 1177 774 1183L774 1201Q774 1254 756 1286Q738 1318 705 1337Q671 1355 627.50 1360Q584 1365 536 1365Q452 1365 368 1341Q284 1317 245 1303L231 1303L231 1475Q276 1488 368 1504Q460 1520 537 1520Q754 1520 849 1435.50Q944 1351 944 1192L944 554M774 796L774 1041Q705 1037 613.50 1029Q522 1021 468 1006Q404 988 365 949.50Q326 911 326 843Q326 767 371.50 729Q417 691 511 691Q593 691 658.50 724.50Q724 758 774 796Z"  horiz-adv-x="1117" vert-adv-y="2048"  />

      
      <glyph glyph-name="uniba" unicode="&#xba;" d="M996 1025Q996 790 874 660.50Q752 531 559 531Q358 531 239.50 663.50Q121 796 121 1025Q121 1254 239.50 1387Q358 1520 559 1520Q752 1520 874 1390Q996 1260 996 1025M814 1025Q814 1197 746.50 1283Q679 1369 559 1369Q437 1369 370 1282Q303 1195 303 1025Q303 855 370 768.50Q437 682 559 682Q679 682 746.50 767.50Q814 853 814 1025Z"  horiz-adv-x="1117" vert-adv-y="2048"  />

      
      <glyph glyph-name="uni2126" unicode="&#x2126;" d="M1569 0L965 0L965 389Q1032 428 1098 473Q1164 518 1209 573Q1256 631 1284 707.50Q1312 784 1312 896Q1312 1096 1188 1222.50Q1064 1349 838 1349Q612 1349 488 1222.50Q364 1096 364 896Q364 786 393 707Q422 628 469 572Q516 515 579.50 471.50Q643 428 711 389L711 0L107 0L107 174L543 174L543 298Q375 386 266.50 539Q158 692 158 896Q158 1174 343 1347Q528 1520 838 1520Q1148 1520 1333 1347Q1518 1174 1518 896Q1518 692 1409.50 539Q1301 386 1133 298L1133 174L1569 174L1569 0Z"  horiz-adv-x="1676" vert-adv-y="2048"  />

      
      <glyph glyph-name="unie6" unicode="&#xe6;" d="M1855 559L1036 559Q1036 445 1066 364Q1096 283 1151 231Q1203 183 1274 160.50Q1345 138 1431 138Q1542 138 1648.50 179.50Q1755 221 1821 273L1833 273L1833 68Q1755 33 1648.50 3.50Q1542-26 1433-26Q1267-26 1148.50 26Q1030 78 954 181Q933 162 887 122Q841 82 791 54Q728 18 654-5.50Q580-29 465-29Q315-29 209.50 68Q104 165 104 317Q104 441 158 517.50Q212 594 313 636Q408 675 554 689Q700 703 862 706L862 767Q862 832 839 874.50Q816 917 775 940Q735 963 679 971.50Q623 980 563 980Q484 980 394.50 959Q305 938 215 902L202 902L202 1093Q257 1108 360 1127Q463 1146 564 1146Q723 1146 828.50 1099.50Q934 1053 991 962Q1060 1044 1161 1096Q1262 1148 1387 1148Q1604 1148 1729.50 1020Q1855 892 1855 641L1855 559M1673 703Q1668 771 1649.50 822Q1631 873 1599 910Q1565 949 1510.50 971Q1456 993 1377 993Q1244 993 1154 918Q1064 843 1039 703L1673 703M894 298Q874 351 863.50 417Q853 483 853 558Q748 555 652 550.50Q556 546 474 525Q395 505 346.50 459.50Q298 414 298 331Q298 236 356 190Q414 144 532 144Q631 144 727.50 187Q824 230 894 298Z"  horiz-adv-x="1956" vert-adv-y="2048"  />

      
      <glyph glyph-name="unif8" unicode="&#xf8;" d="M1137 558Q1137 285 997 127Q857-31 622-31Q538-31 466.50-10Q395 11 336 50L203-148L93-148L264 108Q189 185 147.50 298Q106 411 106 558Q106 831 245.50 989.50Q385 1148 622 1148Q709 1148 780 1126Q851 1104 905 1069L1021 1241L1132 1241L977 1010Q1053 934 1095 822Q1137 710 1137 558M813 930Q776 959 726.50 973.50Q677 988 622 988Q467 988 382 878Q297 768 297 558Q297 461 314 387Q331 313 366 259L813 930M946 558Q946 655 928.50 731Q911 807 877 861L429 190Q468 159 515.50 144Q563 129 622 129Q772 129 859 237.50Q946 346 946 558Z"  horiz-adv-x="1243" vert-adv-y="2048"  />

      
      <glyph glyph-name="unibf" unicode="&#xbf;" d="M712 1278L508 1278L508 1489L712 1489L712 1278M958 40Q875 10 782-10Q689-30 577-30Q362-30 237.50 74.50Q113 179 113 350Q113 448 147.50 523Q182 598 241 660Q299 722 377.50 772.50Q456 823 524 864L524 1089L703 1089L703 784Q643 751 564 702.50Q485 654 439 614Q385 567 351 505Q317 443 317 365Q317 252 393.50 196.50Q470 141 591 141Q694 141 792.50 174Q891 207 948 244L958 244L958 40Z"  horiz-adv-x="1117" vert-adv-y="2048"  />

      
      <glyph glyph-name="unia1" unicode="&#xa1;" d="M505 1278L301 1278L301 1489L505 1489L505 1278M515 0L291 0L317 1079L487 1079L515 0Z"  horiz-adv-x="806" vert-adv-y="2048"  />

      
      <glyph glyph-name="uniac" unicode="&#xac;" d="M1456 57L1285 57L1285 602L210 602L210 762L1456 762L1456 57Z"  horiz-adv-x="1676" vert-adv-y="2048"  />

      
      <glyph glyph-name="uni221A" unicode="&#x221A;" d="M1737 1788L857-151L755-151L371 842L134 842L134 981L527 981L840 160L1570 1788L1737 1788Z"  horiz-adv-x="1676" vert-adv-y="2048"  />

      
      <glyph glyph-name="uni0192" unicode="&#x0192;" d="M1280 1321L1270 1321Q1241 1331 1184 1344Q1127 1357 1086 1357Q965 1357 902 1297.50Q839 1238 804 1078L762 884L1083 884L1083 746L734 746L631 256Q602 122 556 34Q510-54 446-106Q381-159 305-180Q229-201 137-201Q96-201 56-197.50Q16-194-36-185L-36-5L-26-5Q7-19 54-29Q101-39 145-39Q272-39 336.50 25Q401 89 436 256L539 746L322 746L322 884L567 884L609 1082Q635 1205 681 1289Q727 1373 789 1424Q851 1475 927.50 1497Q1004 1519 1091 1519Q1149 1519 1188.50 1514Q1228 1509 1280 1501L1280 1321Z"  horiz-adv-x="1302" vert-adv-y="2048"  />

      
      <glyph glyph-name="uni2248" unicode="&#x2248;" d="M1431 1104Q1411 910 1320 811Q1229 712 1071 712Q994 712 924 749.50Q854 787 798 832Q733 884 681 911.50Q629 939 585 939Q510 939 468 891Q426 843 398 719L243 719Q266 901 355.50 999Q445 1097 604 1097Q676 1097 747 1060Q818 1023 877 977Q938 929 991.50 899.50Q1045 870 1090 870Q1166 870 1210.50 924.50Q1255 979 1274 1104L1431 1104M1432 588Q1407 404 1320 306.50Q1233 209 1070 209Q998 209 926 246.50Q854 284 797 329Q758 360 694 398Q630 436 584 436Q506 436 463 381Q420 326 400 202L243 202Q262 394 353.50 494Q445 594 603 594Q680 594 749 557Q818 520 876 474Q911 446 973 406.50Q1035 367 1089 367Q1164 367 1206 416.50Q1248 466 1275 588L1432 588Z"  horiz-adv-x="1676" vert-adv-y="2048"  />

      
      <glyph glyph-name="uni2206" unicode="&#x2206;" d="M1438 0L50 0L612 1489L876 1489L1438 0M1171 168L739 1315L308 168L1171 168Z"  horiz-adv-x="1489" vert-adv-y="2048"  />

      
      <glyph glyph-name="uniab" unicode="&#xab;" d="M1146 191L618 610L618 695L1146 1113L1146 925L789 652L1146 379L1146 191M716 162L166 608L166 697L716 1142L716 946L345 652L716 358L716 162Z"  horiz-adv-x="1320" vert-adv-y="2048"  />

      
      <glyph glyph-name="unibb" unicode="&#xbb;" d="M1154 608L604 162L604 358L975 652L604 946L604 1142L1154 697L1154 608M702 610L174 191L174 379L531 652L174 925L174 1113L702 695L702 610Z"  horiz-adv-x="1320" vert-adv-y="2048"  />

      
      <glyph glyph-name="uni2026" unicode="&#x2026;" d="M1498 0L1294 0L1294 223L1498 223L1498 0M940 0L736 0L736 223L940 223L940 0M382 0L178 0L178 223L382 223L382 0Z"  horiz-adv-x="1676" vert-adv-y="2048"  />

      
      <glyph glyph-name="unic0" unicode="&#xc0;" d="M1374 0L1163 0L1017 415L373 415L227 0L26 0L568 1489L832 1489L1374 0M956 585L695 1316L433 585L956 585M862 1675L713 1675L440 2049L683 2049L862 1675Z"  horiz-adv-x="1400" vert-adv-y="2048"  />

      
      <glyph glyph-name="unic3" unicode="&#xc3;" d="M1374 0L1163 0L1017 415L373 415L227 0L26 0L568 1489L832 1489L1374 0M956 585L695 1316L433 585L956 585M1119 1992Q1108 1840 1042 1763Q976 1686 865 1686Q811 1686 765 1705.50Q719 1725 678 1762Q631 1805 598.50 1826.50Q566 1848 527 1848Q475 1848 449 1803Q423 1758 419 1682L288 1682Q296 1833 367 1910Q438 1987 541 1987Q591 1987 637.50 1967.50Q684 1948 726 1912Q773 1871 809.50 1850.50Q846 1830 879 1830Q930 1830 958.50 1876Q987 1922 990 1992L1119 1992Z"  horiz-adv-x="1400" vert-adv-y="2048"  />

      
      <glyph glyph-name="unid5" unicode="&#xd5;" d="M1310 1318Q1401 1218 1449.50 1073Q1498 928 1498 744Q1498 560 1448.50 414.50Q1399 269 1310 172Q1218 71 1092.50 20Q967-31 806-31Q649-31 520.50 21Q392 73 302 172Q212 271 163.50 415Q115 559 115 744Q115 926 163 1070.50Q211 1215 303 1318Q391 1416 521.50 1468Q652 1520 806 1520Q966 1520 1093.50 1467.50Q1221 1415 1310 1318M1292 744Q1292 1034 1162 1191.50Q1032 1349 807 1349Q580 1349 450.50 1191.50Q321 1034 321 744Q321 451 453 295.50Q585 140 807 140Q1029 140 1160.50 295.50Q1292 451 1292 744M1207 1992Q1196 1840 1130 1763Q1064 1686 953 1686Q899 1686 853 1705.50Q807 1725 766 1762Q719 1805 686.50 1826.50Q654 1848 615 1848Q563 1848 537 1803Q511 1758 507 1682L376 1682Q384 1833 455 1910Q526 1987 629 1987Q679 1987 725.50 1967.50Q772 1948 814 1912Q861 1871 897.50 1850.50Q934 1830 967 1830Q1018 1830 1046.50 1876Q1075 1922 1078 1992L1207 1992Z"  horiz-adv-x="1612" vert-adv-y="2048"  />

      
      <glyph glyph-name="uni0152" unicode="&#x0152;" d="M2076 0L1002 0Q806 0 676.50 27Q547 54 444 119Q299 210 209.50 373Q120 536 120 743Q120 958 207 1116Q294 1274 446 1370Q525 1421 649.50 1455Q774 1489 1006 1489L2076 1489L2076 1313L1313 1313L1313 905L2076 905L2076 729L1313 729L1313 176L2076 176L2076 0M1116 172L1116 1317L994 1317Q848 1317 757.50 1301Q667 1285 572 1231Q456 1165 391.50 1041Q327 917 327 746Q327 575 383.50 456Q440 337 549 269Q640 212 744 192Q848 172 994 172L1116 172Z"  horiz-adv-x="2191" vert-adv-y="2048"  />

      
      <glyph glyph-name="uni0153" unicode="&#x0153;" d="M1910 539L1106 539Q1106 435 1136 359Q1166 283 1218 234Q1270 185 1340.50 161.50Q1411 138 1493 138Q1602 138 1704.50 177.50Q1807 217 1877 273L1889 273L1889 68Q1791 26 1695.50 0Q1600-26 1495-26Q1327-26 1211 35Q1095 96 1021 200Q952 89 847.50 29Q743-31 612-31Q379-31 242.50 127Q106 285 106 558Q106 835 245.50 991.50Q385 1148 612 1148Q752 1148 852 1087.50Q952 1027 1020 913Q1091 1019 1198.50 1083.50Q1306 1148 1449 1148Q1674 1148 1792 1014Q1910 880 1910 641L1910 539M1727 683Q1724 838 1651.50 915.50Q1579 993 1438 993Q1299 993 1211.50 911Q1124 829 1108 683L1727 683M924 558Q924 773 842 879.50Q760 986 613 986Q460 986 380 874Q300 762 300 558Q300 346 383.50 238.50Q467 131 613 131Q759 131 841.50 237.50Q924 344 924 558Z"  horiz-adv-x="2010" vert-adv-y="2048"  />

      
      <glyph glyph-name="uni2013" unicode="&#x2013;" d="M1149 572L153 572L153 732L1149 732L1149 572Z"  horiz-adv-x="1302" vert-adv-y="2048"  />

      
      <glyph glyph-name="uni2014" unicode="&#x2014;" d="M1895 572L153 572L153 732L1895 732L1895 572Z"  horiz-adv-x="2048" vert-adv-y="2048"  />

      
      <glyph glyph-name="uni201C" unicode="&#x201C;" d="M790 997L656 997L385 1556L625 1556L790 997M386 997L252 997L-19 1556L221 1556L386 997Z"  horiz-adv-x="940" vert-adv-y="2048"  />

      
      <glyph glyph-name="uni201D" unicode="&#x201D;" d="M959 1556L688 997L554 997L719 1556L959 1556M555 1556L284 997L150 997L315 1556L555 1556Z"  horiz-adv-x="940" vert-adv-y="2048"  />

      
      <glyph glyph-name="uni2018" unicode="&#x2018;" d="M390 997L252 997L-19 1556L225 1556L390 997Z"  horiz-adv-x="550" vert-adv-y="2048"  />

      
      <glyph glyph-name="uni2019" unicode="&#x2019;" d="M569 1556L298 997L160 997L325 1556L569 1556Z"  horiz-adv-x="550" vert-adv-y="2048"  />

      
      <glyph glyph-name="unif7" unicode="&#xf7;" d="M957 1022L719 1022L719 1297L957 1297L957 1022M1466 572L210 572L210 732L1466 732L1466 572M957 7L719 7L719 282L957 282L957 7Z"  horiz-adv-x="1676" vert-adv-y="2048"  />

      
      <glyph glyph-name="uni25CA" unicode="&#x25CA;" d="M1504 654L838-56L172 654L838 1364L1504 654M1283 654L838 1131L393 654L838 177L1283 654Z"  horiz-adv-x="1676" vert-adv-y="2048"  />

      
      <glyph glyph-name="uniff" unicode="&#xff;" d="M1151 1117L499-412L298-412L506 54L61 1117L265 1117L608 289L954 1117L1151 1117M923 1304L724 1304L724 1499L923 1499L923 1304M510 1304L311 1304L311 1499L510 1499L510 1304Z"  horiz-adv-x="1212" vert-adv-y="2048"  />

      
      <glyph glyph-name="uni0178" unicode="&#x0178;" d="M1254 1489L730 653L730 0L532 0L532 632L6 1489L225 1489L632 823L1043 1489L1254 1489M939 1677L740 1677L740 1872L939 1872L939 1677M526 1677L327 1677L327 1872L526 1872L526 1677Z"  horiz-adv-x="1260" vert-adv-y="2048"  />

      
      <glyph glyph-name="uni2044" unicode="&#x2044;" d="M843 1489L63 0L-102 0L678 1489L843 1489Z"  horiz-adv-x="740" vert-adv-y="2048"  />

      
      <glyph glyph-name="uni2215" unicode="&#x2215;" d="M843 1489L63 0L-102 0L678 1489L843 1489Z"  horiz-adv-x="740" vert-adv-y="2048"  />

      
      <glyph glyph-name="uni20AC" unicode="&#x20AC;" d="M1226 62Q1118 11 1025.50-8Q933-27 807-27Q564-27 373.50 124Q183 275 134 535L0 535L44 653L119 653Q117 674 116 697.50Q115 721 115 743Q115 769 116 795Q117 821 119 845L0 845L44 963L137 963Q195 1220 381 1368Q567 1516 810 1516Q951 1516 1046.50 1495.50Q1142 1475 1226 1430L1226 1221L1210 1221Q1130 1286 1031 1316.50Q932 1347 808 1347Q651 1347 523 1243.50Q395 1140 347 963L822 963L778 845L326 845Q324 821 322.50 795Q321 769 321 743Q321 720 322 697Q323 674 325 653L705 653L661 535L345 535Q394 353 526 248.50Q658 144 808 144Q965 144 1054 175.50Q1143 207 1211 268L1226 268L1226 62Z"  horiz-adv-x="1302" vert-adv-y="2048"  />

      
      <glyph glyph-name="uni2039" unicode="&#x2039;" d="M736 172L186 608L186 697L736 1132L736 933L365 652L736 371L736 172Z"  horiz-adv-x="930" vert-adv-y="2048"  />

      
      <glyph glyph-name="uni203A" unicode="&#x203A;" d="M744 608L194 172L194 371L565 652L194 933L194 1132L744 697L744 608Z"  horiz-adv-x="930" vert-adv-y="2048"  />

      
      <glyph glyph-name="uniF001" unicode="&#xF001;" d="M1107 1304L899 1304L899 1499L1107 1499L1107 1304M1090 0L902 0L902 962L383 962L383 0L195 0L195 959L68 959L68 1117L195 1117L195 1166Q195 1359 295 1462.50Q395 1566 578 1566Q640 1566 690.50 1559.50Q741 1553 782 1546L782 1376L772 1376Q744 1384 691 1394Q638 1404 604 1404Q483 1404 430 1350.50Q377 1297 377 1157L377 1117L1090 1117L1090 0Z"  horiz-adv-x="1280" vert-adv-y="2048"  />

      
      <glyph glyph-name="uniFB01" unicode="&#xFB01;" d="M1107 1304L899 1304L899 1499L1107 1499L1107 1304M1090 0L902 0L902 962L383 962L383 0L195 0L195 959L68 959L68 1117L195 1117L195 1166Q195 1359 295 1462.50Q395 1566 578 1566Q640 1566 690.50 1559.50Q741 1553 782 1546L782 1376L772 1376Q744 1384 691 1394Q638 1404 604 1404Q483 1404 430 1350.50Q377 1297 377 1157L377 1117L1090 1117L1090 0Z"  horiz-adv-x="1280" vert-adv-y="2048"  />

      
      <glyph glyph-name="uniF002" unicode="&#xF002;" d="M1095 0L907 0L907 1389Q864 1397 794.50 1403Q725 1409 672 1409Q510 1409 443.50 1355Q377 1301 377 1161L377 1117L706 1117L706 959L383 959L383 0L195 0L195 959L68 959L68 1117L195 1117L195 1166Q195 1357 311.50 1461.50Q428 1566 650 1566Q719 1566 791 1559Q863 1552 907 1548L1095 1556L1095 0Z"  horiz-adv-x="1282" vert-adv-y="2048"  />

      
      <glyph glyph-name="uniFB02" unicode="&#xFB02;" d="M1095 0L907 0L907 1389Q864 1397 794.50 1403Q725 1409 672 1409Q510 1409 443.50 1355Q377 1301 377 1161L377 1117L706 1117L706 959L383 959L383 0L195 0L195 959L68 959L68 1117L195 1117L195 1166Q195 1357 311.50 1461.50Q428 1566 650 1566Q719 1566 791 1559Q863 1552 907 1548L1095 1556L1095 0Z"  horiz-adv-x="1282" vert-adv-y="2048"  />

      
      <glyph glyph-name="uni2021" unicode="&#x2021;" d="M1115 507L712 512L717 124L585 124L590 512L187 507L187 636L590 631L590 1049L187 1044L187 1173L590 1168L585 1556L717 1556L712 1168L1115 1173L1115 1044L712 1049L712 631L1115 636L1115 507Z"  horiz-adv-x="1302" vert-adv-y="2048"  />

      
      <glyph glyph-name="uni2219" unicode="&#x2219;" d="M492 511L253 511L253 794L492 794L492 511Z"  horiz-adv-x="745" vert-adv-y="2048"  />

      
      <glyph glyph-name="uni201A" unicode="&#x201A;" d="M399 283L128-276L-10-276L155 283L399 283Z"  horiz-adv-x="550" vert-adv-y="2048"  />

      
      <glyph glyph-name="uni201E" unicode="&#x201E;" d="M799 283L528-276L394-276L559 283L799 283M395 283L124-276L-10-276L155 283L395 283Z"  horiz-adv-x="940" vert-adv-y="2048"  />

      
      <glyph glyph-name="uni2030" unicode="&#x2030;" d="M884 1076Q884 852 789.50 743Q695 634 517 634Q335 634 242 743Q149 852 149 1075Q149 1299 244 1408Q339 1517 517 1517Q698 1517 791 1407Q884 1297 884 1076M1575 1489L795 0L630 0L1410 1489L1575 1489M2055 413Q2055 189 1960 80Q1865-29 1687-29Q1506-29 1413 81Q1320 191 1320 412Q1320 636 1414.50 745Q1509 854 1687 854Q1869 854 1962 745Q2055 636 2055 413M706 1076Q706 1248 661.50 1316Q617 1384 517 1384Q415 1384 371 1316Q327 1248 327 1075Q327 902 371 834.50Q415 767 517 767Q617 767 661.50 834.50Q706 902 706 1076M1877 413Q1877 585 1832.50 653Q1788 721 1688 721Q1586 721 1542 653Q1498 585 1498 412Q1498 239 1542 171.50Q1586 104 1688 104Q1788 104 1832.50 171.50Q1877 239 1877 413M2963 413Q2963 189 2868 80Q2773-29 2595-29Q2414-29 2321 81Q2228 191 2228 412Q2228 636 2322.50 745Q2417 854 2595 854Q2777 854 2870 745Q2963 636 2963 413M2785 413Q2785 585 2740.50 653Q2696 721 2596 721Q2494 721 2450 653Q2406 585 2406 412Q2406 239 2450 171.50Q2494 104 2596 104Q2696 104 2740.50 171.50Q2785 239 2785 413Z"  horiz-adv-x="3116" vert-adv-y="2048"  />

      
      <glyph glyph-name="unic2" unicode="&#xc2;" d="M1374 0L1163 0L1017 415L373 415L227 0L26 0L568 1489L832 1489L1374 0M956 585L695 1316L433 585L956 585M1033 1670L874 1670L689 1926L505 1670L350 1670L578 2049L805 2049L1033 1670Z"  horiz-adv-x="1400" vert-adv-y="2048"  />

      
      <glyph glyph-name="unica" unicode="&#xca;" d="M1181 0L200 0L200 1489L1181 1489L1181 1313L398 1313L398 905L1181 905L1181 729L398 729L398 176L1181 176L1181 0M1031 1670L872 1670L687 1926L503 1670L348 1670L576 2049L803 2049L1031 1670Z"  horiz-adv-x="1295" vert-adv-y="2048"  />

      
      <glyph glyph-name="unic1" unicode="&#xc1;" d="M1374 0L1163 0L1017 415L373 415L227 0L26 0L568 1489L832 1489L1374 0M956 585L695 1316L433 585L956 585M955 2049L682 1675L533 1675L712 2049L955 2049Z"  horiz-adv-x="1400" vert-adv-y="2048"  />

      
      <glyph glyph-name="unicb" unicode="&#xcb;" d="M1181 0L200 0L200 1489L1181 1489L1181 1313L398 1313L398 905L1181 905L1181 729L398 729L398 176L1181 176L1181 0M1038 1677L839 1677L839 1872L1038 1872L1038 1677M625 1677L426 1677L426 1872L625 1872L625 1677Z"  horiz-adv-x="1295" vert-adv-y="2048"  />

      
      <glyph glyph-name="unic8" unicode="&#xc8;" d="M1181 0L200 0L200 1489L1181 1489L1181 1313L398 1313L398 905L1181 905L1181 729L398 729L398 176L1181 176L1181 0M822 1675L673 1675L400 2049L643 2049L822 1675Z"  horiz-adv-x="1295" vert-adv-y="2048"  />

      
      <glyph glyph-name="unicd" unicode="&#xcd;" d="M725 0L137 0L137 152L332 152L332 1337L137 1337L137 1489L725 1489L725 1337L530 1337L530 152L725 152L725 0M725 2049L452 1675L303 1675L482 2049L725 2049Z"  horiz-adv-x="862" vert-adv-y="2048"  />

      
      <glyph glyph-name="unice" unicode="&#xce;" d="M725 0L137 0L137 152L332 152L332 1337L137 1337L137 1489L725 1489L725 1337L530 1337L530 152L725 152L725 0M776 1670L617 1670L432 1926L248 1670L93 1670L321 2049L548 2049L776 1670Z"  horiz-adv-x="862" vert-adv-y="2048"  />

      
      <glyph glyph-name="unicf" unicode="&#xcf;" d="M725 0L137 0L137 152L332 152L332 1337L137 1337L137 1489L725 1489L725 1337L530 1337L530 152L725 152L725 0M738 1677L539 1677L539 1872L738 1872L738 1677M325 1677L126 1677L126 1872L325 1872L325 1677Z"  horiz-adv-x="862" vert-adv-y="2048"  />

      
      <glyph glyph-name="unicc" unicode="&#xcc;" d="M725 0L137 0L137 152L332 152L332 1337L137 1337L137 1489L725 1489L725 1337L530 1337L530 152L725 152L725 0M568 1675L419 1675L146 2049L389 2049L568 1675Z"  horiz-adv-x="862" vert-adv-y="2048"  />

      
      <glyph glyph-name="unid3" unicode="&#xd3;" d="M1310 1318Q1401 1218 1449.50 1073Q1498 928 1498 744Q1498 560 1448.50 414.50Q1399 269 1310 172Q1218 71 1092.50 20Q967-31 806-31Q649-31 520.50 21Q392 73 302 172Q212 271 163.50 415Q115 559 115 744Q115 926 163 1070.50Q211 1215 303 1318Q391 1416 521.50 1468Q652 1520 806 1520Q966 1520 1093.50 1467.50Q1221 1415 1310 1318M1292 744Q1292 1034 1162 1191.50Q1032 1349 807 1349Q580 1349 450.50 1191.50Q321 1034 321 744Q321 451 453 295.50Q585 140 807 140Q1029 140 1160.50 295.50Q1292 451 1292 744M1083 2049L810 1675L661 1675L840 2049L1083 2049Z"  horiz-adv-x="1612" vert-adv-y="2048"  />

      
      <glyph glyph-name="unid4" unicode="&#xd4;" d="M1310 1318Q1401 1218 1449.50 1073Q1498 928 1498 744Q1498 560 1448.50 414.50Q1399 269 1310 172Q1218 71 1092.50 20Q967-31 806-31Q649-31 520.50 21Q392 73 302 172Q212 271 163.50 415Q115 559 115 744Q115 926 163 1070.50Q211 1215 303 1318Q391 1416 521.50 1468Q652 1520 806 1520Q966 1520 1093.50 1467.50Q1221 1415 1310 1318M1292 744Q1292 1034 1162 1191.50Q1032 1349 807 1349Q580 1349 450.50 1191.50Q321 1034 321 744Q321 451 453 295.50Q585 140 807 140Q1029 140 1160.50 295.50Q1292 451 1292 744M1136 1670L977 1670L792 1926L608 1670L453 1670L681 2049L908 2049L1136 1670Z"  horiz-adv-x="1612" vert-adv-y="2048"  />

      
      <glyph glyph-name="unid2" unicode="&#xd2;" d="M1310 1318Q1401 1218 1449.50 1073Q1498 928 1498 744Q1498 560 1448.50 414.50Q1399 269 1310 172Q1218 71 1092.50 20Q967-31 806-31Q649-31 520.50 21Q392 73 302 172Q212 271 163.50 415Q115 559 115 744Q115 926 163 1070.50Q211 1215 303 1318Q391 1416 521.50 1468Q652 1520 806 1520Q966 1520 1093.50 1467.50Q1221 1415 1310 1318M1292 744Q1292 1034 1162 1191.50Q1032 1349 807 1349Q580 1349 450.50 1191.50Q321 1034 321 744Q321 451 453 295.50Q585 140 807 140Q1029 140 1160.50 295.50Q1292 451 1292 744M932 1675L783 1675L510 2049L753 2049L932 1675Z"  horiz-adv-x="1612" vert-adv-y="2048"  />

      
      <glyph glyph-name="unida" unicode="&#xda;" d="M1321 598Q1321 436 1285.50 315.50Q1250 195 1169 115Q1092 39 989 4Q886-31 749-31Q609-31 505 6Q401 43 330 115Q249 197 213.50 313Q178 429 178 598L178 1489L376 1489L376 588Q376 467 392.50 397Q409 327 448 270Q492 205 567.50 172Q643 139 749 139Q856 139 931 171.50Q1006 204 1051 270Q1090 327 1106.50 400.50Q1123 474 1123 583L1123 1489L1321 1489L1321 598M1073 2049L800 1675L651 1675L830 2049L1073 2049Z"  horiz-adv-x="1499" vert-adv-y="2048"  />

      
      <glyph glyph-name="unidb" unicode="&#xdb;" d="M1321 598Q1321 436 1285.50 315.50Q1250 195 1169 115Q1092 39 989 4Q886-31 749-31Q609-31 505 6Q401 43 330 115Q249 197 213.50 313Q178 429 178 598L178 1489L376 1489L376 588Q376 467 392.50 397Q409 327 448 270Q492 205 567.50 172Q643 139 749 139Q856 139 931 171.50Q1006 204 1051 270Q1090 327 1106.50 400.50Q1123 474 1123 583L1123 1489L1321 1489L1321 598M1084 1670L925 1670L740 1926L556 1670L401 1670L629 2049L856 2049L1084 1670Z"  horiz-adv-x="1499" vert-adv-y="2048"  />

      
      <glyph glyph-name="unid9" unicode="&#xd9;" d="M1321 598Q1321 436 1285.50 315.50Q1250 195 1169 115Q1092 39 989 4Q886-31 749-31Q609-31 505 6Q401 43 330 115Q249 197 213.50 313Q178 429 178 598L178 1489L376 1489L376 588Q376 467 392.50 397Q409 327 448 270Q492 205 567.50 172Q643 139 749 139Q856 139 931 171.50Q1006 204 1051 270Q1090 327 1106.50 400.50Q1123 474 1123 583L1123 1489L1321 1489L1321 598M932 1675L783 1675L510 2049L753 2049L932 1675Z"  horiz-adv-x="1499" vert-adv-y="2048"  />

      
      <glyph glyph-name="uni0131" unicode="&#x0131;" d="M375 0L187 0L187 1117L375 1117L375 0Z"  horiz-adv-x="562" vert-adv-y="2048"  />

      
      <glyph glyph-name="uni02C6" unicode="&#x02C6;" d="M993 1297L834 1297L649 1553L465 1297L310 1297L538 1676L765 1676L993 1297Z"  horiz-adv-x="1302" vert-adv-y="2048"  />

      
      <glyph glyph-name="uni02DC" unicode="&#x02DC;" d="M1068 1619Q1057 1467 991 1390Q925 1313 814 1313Q760 1313 714 1332.50Q668 1352 627 1389Q580 1432 547.50 1453.50Q515 1475 476 1475Q424 1475 398 1430Q372 1385 368 1309L237 1309Q245 1460 316 1537Q387 1614 490 1614Q540 1614 586.50 1594.50Q633 1575 675 1539Q722 1498 758.50 1477.50Q795 1457 828 1457Q879 1457 907.50 1503Q936 1549 939 1619L1068 1619Z"  horiz-adv-x="1302" vert-adv-y="2048"  />

      
      <glyph glyph-name="uni02C9" unicode="&#x02C9;" d="M1022 1335L280 1335L280 1489L1022 1489L1022 1335Z"  horiz-adv-x="1302" vert-adv-y="2048"  />

      
      <glyph glyph-name="uni02D8" unicode="&#x02D8;" d="M1026 1676Q1016 1508 917.50 1401Q819 1294 650 1294Q481 1294 382.50 1401Q284 1508 275 1676L441 1676Q453 1544 506.50 1484Q560 1424 651 1424Q740 1424 793.50 1484Q847 1544 861 1676L1026 1676Z"  horiz-adv-x="1302" vert-adv-y="2048"  />

      
      <glyph glyph-name="uni02D9" unicode="&#x02D9;" d="M757 1304L545 1304L545 1499L757 1499L757 1304Z"  horiz-adv-x="1302" vert-adv-y="2048"  />

      
      <glyph glyph-name="uni02DA" unicode="&#x02DA;" d="M1001 1630Q1001 1487 899 1388Q797 1289 651 1289Q507 1289 404 1387.50Q301 1486 301 1630Q301 1773 403 1871Q505 1969 651 1969Q798 1969 899.50 1871Q1001 1773 1001 1630M856 1630Q856 1716 797.50 1775.50Q739 1835 651 1835Q563 1835 504.50 1776Q446 1717 446 1630Q446 1543 505 1484Q564 1425 651 1425Q739 1425 797.50 1484Q856 1543 856 1630Z"  horiz-adv-x="1302" vert-adv-y="2048"  />

      
      <glyph glyph-name="unib8" unicode="&#xb8;" d="M880-89Q880-251 788.50-337Q697-423 551-423Q514-423 456-416Q398-409 353-397L353-237L362-237Q388-247 432-260Q476-273 526-273Q630-273 679-234Q728-195 728-107Q728-78 725-41.50Q722-5 719 20L872 20Q874 1 877-25Q880-51 880-89Z"  horiz-adv-x="1302" vert-adv-y="2048"  />

      
      <glyph glyph-name="uni02DD" unicode="&#x02DD;" d="M1143 1676L885 1302L746 1302L915 1676L1143 1676M739 1676L481 1302L342 1302L511 1676L739 1676Z"  horiz-adv-x="1302" vert-adv-y="2048"  />

      
      <glyph glyph-name="uni02DB" unicode="&#x02DB;" d="M892-391Q840-405 802.50-411Q765-417 723-417Q584-417 499.50-338Q415-259 415-116Q415-78 421.50-47Q428-16 434 10L589 10Q583-17 580-47Q577-77 577-107Q577-189 618.50-228Q660-267 750-267Q786-267 826.50-253.50Q867-240 884-232L892-232L892-391Z"  horiz-adv-x="1302" vert-adv-y="2048"  />

      
      <glyph glyph-name="uni02C7" unicode="&#x02C7;" d="M989 1676L761 1297L534 1297L306 1676L465 1676L650 1420L834 1676L989 1676Z"  horiz-adv-x="1302" vert-adv-y="2048"  />

      
      <glyph glyph-name="uni0141" unicode="&#x0141;" d="M1152 0L210 0L210 535L24 383L24 546L210 695L210 1489L408 1489L408 841L757 1124L757 961L408 681L408 176L1152 176L1152 0Z"  horiz-adv-x="1150" vert-adv-y="2048"  />

      
      <glyph glyph-name="uni0142" unicode="&#x0142;" d="M566 890L385 745L385 0L197 0L197 608L24 467L24 626L197 764L197 1556L385 1556L385 901L566 1049L566 890Z"  horiz-adv-x="582" vert-adv-y="2048"  />

      
      <glyph glyph-name="uni0160" unicode="&#x0160;" d="M1282 425Q1282 338 1241.50 253Q1201 168 1128 109Q1048 45 941.50 9Q835-27 685-27Q524-27 395.50 3Q267 33 134 92L134 340L148 340Q261 246 409 195Q557 144 687 144Q871 144 973.50 213Q1076 282 1076 397Q1076 496 1027.50 543Q979 590 880 616Q805 636 717.50 649Q630 662 532 682Q334 724 238.50 825.50Q143 927 143 1090Q143 1277 301 1396.50Q459 1516 702 1516Q859 1516 990 1486Q1121 1456 1222 1412L1222 1178L1208 1178Q1123 1250 984.50 1297.50Q846 1345 701 1345Q542 1345 445.50 1279Q349 1213 349 1109Q349 1016 397 963Q445 910 566 882Q630 868 748 848Q866 828 948 807Q1114 763 1198 674Q1282 585 1282 425M1066 2049L838 1670L611 1670L383 2049L542 2049L727 1793L911 2049L1066 2049Z"  horiz-adv-x="1400" vert-adv-y="2048"  />

      
      <glyph glyph-name="uni0161" unicode="&#x0161;" d="M983 322Q983 169 856.50 71Q730-27 511-27Q387-27 283.50 2.50Q180 32 110 67L110 278L120 278Q209 211 318 171.50Q427 132 527 132Q651 132 721 172Q791 212 791 298Q791 364 753 398Q715 432 607 456Q567 465 502.50 477Q438 489 385 503Q238 542 176.50 617.50Q115 693 115 803Q115 872 143.50 933Q172 994 230 1042Q286 1089 372.50 1116.50Q459 1144 566 1144Q666 1144 768.50 1119.50Q871 1095 939 1060L939 859L929 859Q857 912 754 948.50Q651 985 552 985Q449 985 378 945.50Q307 906 307 828Q307 759 350 724Q392 689 486 667Q538 655 602.50 643Q667 631 710 621Q841 591 912 518Q983 444 983 322M907 1676L679 1297L452 1297L224 1676L383 1676L568 1420L752 1676L907 1676Z"  horiz-adv-x="1067" vert-adv-y="2048"  />

      
      <glyph glyph-name="uni017D" unicode="&#x017D;" d="M1288 0L126 0L126 184L1039 1313L160 1313L160 1489L1266 1489L1266 1310L344 176L1288 176L1288 0M1039 2049L811 1670L584 1670L356 2049L515 2049L700 1793L884 2049L1039 2049Z"  horiz-adv-x="1403" vert-adv-y="2048"  />

      
      <glyph glyph-name="uni017E" unicode="&#x017E;" d="M995 0L93 0L93 139L744 960L107 960L107 1117L978 1117L978 983L324 159L995 159L995 0M881 1676L653 1297L426 1297L198 1676L357 1676L542 1420L726 1676L881 1676Z"  horiz-adv-x="1076" vert-adv-y="2048"  />

      
      <glyph glyph-name="unia6" unicode="&#xa6;" d="M552 758L378 758L378 1556L552 1556L552 758M552-392L378-392L378 406L552 406L552-392Z"  horiz-adv-x="930" vert-adv-y="2048"  />

      
      <glyph glyph-name="unid0" unicode="&#xd0;" d="M1468 743Q1468 540 1379.50 375Q1291 210 1144 119Q1042 56 916.50 28Q791 0 586 0L210 0L210 740L14 740L14 883L210 883L210 1489L582 1489Q800 1489 929 1457.50Q1058 1426 1146 1371Q1298 1276 1383 1118Q1468 960 1468 743M1261 746Q1261 921 1200 1041Q1139 1161 1018 1230Q930 1280 831 1299.50Q732 1319 594 1319L406 1319L406 883L767 883L767 740L406 740L406 170L594 170Q737 170 843.50 191Q950 212 1039 269Q1150 340 1205.50 456Q1261 572 1261 746Z"  horiz-adv-x="1588" vert-adv-y="2048"  />

      
      <glyph glyph-name="unif0" unicode="&#xf0;" d="M1137 637Q1137 313 995 141Q853-31 612-31Q383-31 244.50 104Q106 239 106 484Q106 710 243 842Q380 974 582 974Q690 974 767.50 947.50Q845 921 931 868Q899 980 831.50 1087Q764 1194 677 1268L413 1106L347 1203L584 1345Q500 1412 428 1452.50Q356 1493 263 1540L263 1556L558 1556Q593 1531 642 1497.50Q691 1464 728 1438L938 1566L1004 1469L818 1360Q971 1213 1054 1034.50Q1137 856 1137 637M847 226Q896 285 922 369.50Q948 454 948 604Q948 636 946.50 663.50Q945 691 943 721Q868 766 785.50 787.50Q703 809 617 809Q470 809 385.50 721.50Q301 634 301 482Q301 302 385.50 215Q470 128 613 128Q679 128 740.50 150Q802 172 847 226Z"  horiz-adv-x="1253" vert-adv-y="2048"  />

      
      <glyph glyph-name="unidd" unicode="&#xdd;" d="M1254 1489L730 653L730 0L532 0L532 632L6 1489L225 1489L632 823L1043 1489L1254 1489M935 2049L662 1675L513 1675L692 2049L935 2049Z"  horiz-adv-x="1260" vert-adv-y="2048"  />

      
      <glyph glyph-name="unifd" unicode="&#xfd;" d="M1151 1117L499-412L298-412L506 54L61 1117L265 1117L608 289L954 1117L1151 1117M928 1676L655 1302L506 1302L685 1676L928 1676Z"  horiz-adv-x="1212" vert-adv-y="2048"  />

      
      <glyph glyph-name="unide" unicode="&#xde;" d="M1174 787Q1174 695 1139 610.50Q1104 526 1044 469Q966 394 856.50 358Q747 322 596 322L398 322L398 0L200 0L200 1489L398 1489L398 1219L603 1219Q736 1219 833 1196.50Q930 1174 997 1130Q1080 1077 1127 992Q1174 907 1174 787M968 782Q968 854 942 907.50Q916 961 860 996Q812 1026 748 1038.50Q684 1051 594 1051L398 1051L398 488L565 488Q684 488 760 508.50Q836 529 883 574Q927 615 947.50 666Q968 717 968 782Z"  horiz-adv-x="1240" vert-adv-y="2048"  />

      
      <glyph glyph-name="unife" unicode="&#xfe;" d="M1168 572Q1168 436 1129 323.50Q1090 211 1019 133Q953 59 863.50 18.50Q774-22 674-22Q587-22 516.50-3Q446 16 373 56L373-412L185-412L185 1556L373 1556L373 1000Q448 1063 541.50 1105.50Q635 1148 741 1148Q943 1148 1055.50 995.50Q1168 843 1168 572M974 567Q974 769 905 869Q836 969 693 969Q612 969 530 934Q448 899 373 842L373 209Q453 173 510.50 160Q568 147 641 147Q798 147 886 253Q974 359 974 567Z"  horiz-adv-x="1276" vert-adv-y="2048"  />

      
      <glyph glyph-name="uni2212" unicode="&#x2212;" d="M1456 572L220 572L220 732L1456 732L1456 572Z"  horiz-adv-x="1676" vert-adv-y="2048"  />

      
      <glyph glyph-name="unid7" unicode="&#xd7;" d="M1385 216L1274 105L838 545L402 105L291 216L731 652L291 1088L402 1199L838 759L1274 1199L1385 1088L945 652L1385 216Z"  horiz-adv-x="1676" vert-adv-y="2048"  />

      
      <glyph glyph-name="unib9" unicode="&#xb9;" d="M914 566L299 566L299 688L533 688L533 1256L291 1256L291 1368Q336 1368 390 1374.50Q444 1381 474 1393Q511 1409 533 1431Q555 1453 558 1493L693 1493L693 688L914 688L914 566Z"  horiz-adv-x="1110" vert-adv-y="2048"  />

      
      <glyph glyph-name="unib2" unicode="&#xb2;" d="M967 566L207 566L207 722Q307 784 390.50 839Q474 894 525 935Q656 1038 693 1089.50Q730 1141 730 1225Q730 1294 676.50 1332Q623 1370 533 1370Q444 1370 358 1339.50Q272 1309 224 1278L211 1278L211 1458Q282 1484 369.50 1501.50Q457 1519 544 1519Q724 1519 817.50 1440.50Q911 1362 911 1237Q911 1138 862.50 1062.50Q814 987 699 897Q644 854 566.50 803Q489 752 423 711L967 711L967 566Z"  horiz-adv-x="1110" vert-adv-y="2048"  />

      
      <glyph glyph-name="unib3" unicode="&#xb3;" d="M956 817Q956 742 923 685.50Q890 629 834 595Q777 560 703 543.50Q629 527 540 527Q446 527 363.50 542Q281 557 207 585L207 764L221 764Q262 728 359.50 698.50Q457 669 550 669Q650 669 716.50 704.50Q783 740 783 815Q783 900 724 930Q665 960 553 960L410 960L410 1101L538 1101Q650 1101 703.50 1139.50Q757 1178 757 1246Q757 1307 707.50 1342.50Q658 1378 554 1378Q477 1378 379.50 1347Q282 1316 238 1280L224 1280L224 1458Q298 1485 384.50 1502.50Q471 1520 561 1520Q736 1520 832.50 1452Q929 1384 929 1278Q929 1189 874 1132Q819 1075 730 1049L730 1041Q825 1024 890.50 968.50Q956 913 956 817Z"  horiz-adv-x="1110" vert-adv-y="2048"  />

      
      <glyph glyph-name="unibd" unicode="&#xbd;" d="M545 565L380 565L380 1246L171 1246L171 1363Q273 1363 336 1385Q399 1407 408 1493L545 1493L545 565M1410 1489L630 0L465 0L1245 1489L1410 1489M1955 0L1267 0L1267 148Q1358 217 1425 269Q1492 321 1531 358Q1640 461 1672 515.50Q1704 570 1704 652Q1704 722 1660 759Q1616 796 1540 796Q1470 796 1398.50 766Q1327 736 1286 704L1271 704L1271 883Q1336 910 1411.50 927Q1487 944 1564 944Q1721 944 1805.50 865Q1890 786 1890 664Q1890 571 1849 497Q1808 423 1702 329Q1653 286 1582.50 233Q1512 180 1457 139L1955 139L1955 0Z"  horiz-adv-x="2048" vert-adv-y="2048"  />

      
      <glyph glyph-name="unibc" unicode="&#xbc;" d="M545 565L380 565L380 1246L171 1246L171 1363Q273 1363 336 1385Q399 1407 408 1493L545 1493L545 565M1410 1489L630 0L465 0L1245 1489L1410 1489M1857 220L1694 220L1694 0L1544 0L1544 220L1079 220L1079 405L1545 944L1694 944L1694 353L1857 353L1857 220M1548 353L1548 753L1195 353L1548 353Z"  horiz-adv-x="2048" vert-adv-y="2048"  />

      
      <glyph glyph-name="unibe" unicode="&#xbe;" d="M793 826Q793 755 763 699Q733 643 685 609Q632 572 570.50 556Q509 540 430 540Q348 540 276.50 555Q205 570 140 598L140 773L157 773Q194 738 271 708.50Q348 679 427 679Q511 679 566 715.50Q621 752 621 824Q621 907 571 936.50Q521 966 430 966L290 966L290 1105L415 1105Q502 1105 549.50 1143Q597 1181 597 1247Q597 1307 556 1342.50Q515 1378 428 1378Q362 1378 285.50 1347Q209 1316 172 1281L155 1281L155 1456Q219 1483 294 1500Q369 1517 448 1517Q600 1517 685 1447Q770 1377 770 1279Q770 1192 721.50 1135.50Q673 1079 596 1053L596 1045Q676 1029 734.50 974.50Q793 920 793 826M1500 1489L720 0L555 0L1335 1489L1500 1489M1913 220L1750 220L1750 0L1600 0L1600 220L1135 220L1135 405L1601 944L1750 944L1750 353L1913 353L1913 220M1604 353L1604 753L1251 353L1604 353Z"  horiz-adv-x="2048" vert-adv-y="2048"  />

      
      <glyph glyph-name="uni20A3" unicode="&#x20A3;" d="M1140 1318L434 1318L434 891L1084 891L1084 720L434 720L434 447L764 447L764 308L434 308L434 0L242 0L242 308L60 308L60 447L242 447L242 1489L1140 1489L1140 1318Z"  horiz-adv-x="1302" vert-adv-y="2048"  />

      
      </font>
</defs>
</svg>
