<svg id="Слой_1" data-name="Слой 1" xmlns="http://www.w3.org/2000/svg" xmlns:xlink="http://www.w3.org/1999/xlink" viewBox="0 0 909.45 312.23"><defs><style>.cls-1{fill:none;}.cls-2{fill:#fff;}.cls-3{clip-path:url(#clip-path);}</style><clipPath id="clip-path"><rect class="cls-1" x="-223.74" y="-226.98" width="1337.63" height="841.89"/></clipPath></defs><title>Монтажная область 1</title><polygon class="cls-2" points="131.24 70.19 281.71 70.19 251.23 123.56 100.52 123.55 61.52 191.28 0.06 191.28 74.58 61.84 136.04 61.84 131.24 70.19"/><polygon class="cls-2" points="322.08 0.04 291.65 53.31 79.49 53.31 110.18 0.01 171.64 0.01 171.63 0.03 322.08 0.04"/><polygon class="cls-2" points="356.62 61.84 282.1 191.28 220.64 191.28 295.16 61.84 356.62 61.84"/><polygon class="cls-2" points="422.89 53.31 300.07 53.31 330.75 0.01 392.21 0.01 422.89 53.31"/><polygon class="cls-2" points="440.86 191.28 440.86 191.28 290.63 191.28 321.11 137.91 410.13 137.91 366.34 61.84 427.8 61.84 502.32 191.28 440.86 191.28"/><g class="cls-3"><path class="cls-2" d="M631.35,53.32h-188a51.16,51.16,0,0,1,7.17-25c10-16.51,28-26.68,48.74-28.31.08,0,55,0,101,0h61.53Z"/><path class="cls-2" d="M666,168.1c-18.49,21.25-44.25,23-49.4,23.2H510.87l-30.73-53.38,128.79,0c5.46,0,9.88-2.73,10.19-7.2.32-4.75-4.13-8.4-9.92-8.4H513.79a75.34,75.34,0,0,1-39.53-10.86c-9.86-6-19.88-15.3-25.81-29.33a73.73,73.73,0,0,1-4.84-20.31h53.07c.11,4.48,4.43,8.36,9.92,8.36H612.9a65,65,0,0,1,45.64,13.54c4.44,3.45,20.48,16,23.39,38,3.19,24.36-12.13,42-16,46.38"/><polygon class="cls-2" points="737.05 61.84 798.51 61.84 723.99 191.28 662.53 191.28 737.05 61.84"/><polygon class="cls-2" points="909.44 0.04 879 53.31 639.87 53.31 670.32 0.03 772.64 0.03 772.64 0.01 834.1 0.01 834.09 0.04 909.44 0.04"/><polygon class="cls-2" points="46.93 242.16 15.7 242.16 0.06 215 31.29 215 46.93 242.16"/><polygon class="cls-2" points="71.65 242.16 56.01 215 87.23 215 99.59 236.47 111.95 215 143.17 215 127.53 242.16 71.65 242.16"/><polygon class="cls-2" points="147.33 250.71 178.56 250.71 143.17 312.18 111.95 312.18 99.59 290.7 87.23 312.18 56.01 312.18 20.62 250.71 51.85 250.71 71.62 285.06 83.98 263.58 76.57 250.71 122.61 250.71 115.2 263.58 127.56 285.06 147.33 250.71"/><polygon class="cls-2" points="199.12 215 183.48 242.16 152.25 242.16 167.89 215 199.12 215"/><polygon class="cls-2" points="223.23 242.16 192.01 242.16 207.65 215 238.88 215 223.23 242.16"/><polygon class="cls-2" points="187.09 250.71 294.77 250.71 279.32 277.76 279.19 277.76 259.38 312.18 228.16 312.18 247.97 277.76 202.75 277.75 182.93 312.18 151.71 312.18 187.09 250.71"/><polygon class="cls-2" points="315.33 215 299.69 242.16 268.46 242.16 284.1 215 315.33 215"/><polygon class="cls-2" points="303.26 250.71 410.94 250.71 395.48 277.76 318.91 277.75 314.71 285.06 391.28 285.06 375.79 312.18 267.88 312.18 303.26 250.71"/><polygon class="cls-2" points="431.48 215 415.99 242.12 339.44 242.1 339.41 242.16 308.18 242.16 323.82 215 355.04 215 431.48 215"/><polygon class="cls-2" points="419.71 250.71 527.39 250.71 511.93 277.76 435.36 277.75 431.16 285.06 507.72 285.06 492.24 312.18 384.33 312.18 419.71 250.71"/><polygon class="cls-2" points="547.93 215 532.44 242.12 455.88 242.1 455.85 242.16 424.63 242.16 440.27 215 471.49 215 547.93 215"/><polygon class="cls-2" points="572.3 242.16 541.08 242.16 556.72 215 587.94 215 572.3 242.16"/><polygon class="cls-2" points="605.11 285.05 589.5 312.15 532 312.17 532 312.18 500.77 312.18 500.78 312.17 500.77 312.17 516.26 285.06 516.39 285.06 536.16 250.71 567.38 250.71 547.61 285.05 605.11 285.05"/><path class="cls-2" d="M705.86,276.82c1.62,12.37-6.16,21.32-8.11,23.56-9.39,10.8-22.48,11.66-25.09,11.78H598l15.61-27.11h55.13c2.77,0,5-1.38,5.18-3.65.16-2.42-2.1-4.27-5-4.27H620.44a38.3,38.3,0,0,1-20.08-5.51,32,32,0,0,1-13.11-14.91,34.87,34.87,0,0,1-1.81-6h91.61A33,33,0,0,1,694,257.52c2.26,1.76,10.41,8.11,11.88,19.3"/><path class="cls-2" d="M724,215,708.5,242.11H616.93a5.73,5.73,0,0,0-.84.06H584.65a26,26,0,0,1,3.65-12.79c5.1-8.39,14.21-13.56,24.76-14.38H724"/></g></svg>